<svg width="1380" height="357" viewBox="0 0 1380 357" fill="none" xmlns="http://www.w3.org/2000/svg">
<g clip-path="url(#clip0_41_688)">
<path d="M165.924 8.56961C108.423 11.3304 55.95 42.7652 25.7858 92.584C13.0917 113.541 4.73374 138.011 1.84301 162.857C0.0205881 177.853 1.21459 201.508 4.54522 217.759C13.9087 263.813 42.439 304.722 82.6579 329.882C89.4448 334.149 103.773 341.302 111.565 344.376C146.38 358.117 186.473 360 222.481 349.772C235.427 346.07 252.646 339.294 252.646 337.851C252.646 337.6 251.137 337.537 249.315 337.725C244.728 338.165 227.572 336.847 218.208 335.341C205.514 333.271 192.757 329.318 183.268 324.612C181.257 323.608 179.749 322.667 179.875 322.541C180 322.353 182.074 322.792 184.525 323.482C205.326 329.255 240.203 329.82 266.471 324.737C269.739 324.11 273.635 323.42 275.08 323.169C279.668 322.416 285.009 318.212 298.206 305.036C307.821 295.436 311.969 290.604 310.02 291.295C309.392 291.483 308.575 291.922 308.198 292.236C307.821 292.487 303.862 294.306 299.4 296.251C280.987 304.157 262.072 309.177 240.077 311.938C228.451 313.381 202.183 312.879 189.804 310.996C154.549 305.6 123.254 292.989 98.3684 274.228C90.8274 268.519 84.2289 262.746 84.2289 261.93C84.2289 261.617 86.994 263.248 90.3875 265.57C106.915 276.801 130.292 284.832 153.041 287.154C163.221 288.157 183.896 287.53 194.203 285.899C219.465 281.883 235.113 276.989 265.528 263.562C273.132 260.236 282.747 256.095 286.895 254.338C291.042 252.644 295.567 250.699 296.949 250.135C301.348 248.127 323.029 239.97 332.078 236.833C336.854 235.201 341.064 233.57 341.379 233.256C342.573 232.064 345.715 218.888 347.349 208.347C348.794 199.061 349.045 195.798 348.983 183.249C348.983 163.861 347.223 150.748 342.196 133.43C334.969 108.396 321.081 83.5488 303.862 65.0393C288.277 48.2239 272.378 36.2398 252.96 26.5144C243.911 21.9969 240.077 20.4283 229.96 17.0401C215.443 12.2088 200.864 9.32254 187.918 8.75784C183.959 8.63235 179.435 8.38138 177.864 8.31863C176.293 8.19314 170.951 8.31863 165.924 8.56961ZM175.35 45.5259C190.243 46.5298 201.367 49.2278 214.94 55.1258C221.099 57.8238 230.337 63.0315 229.834 63.5335C229.645 63.659 227.572 63.2197 225.184 62.5296C214.878 59.4551 199.418 57.6355 190.118 58.3257C162.782 60.5218 141.101 70.2471 122.563 88.8194C106.664 104.631 97.5515 122.074 93.2154 144.975C91.7071 153.132 91.8328 170.136 93.5296 179.798C97.9285 204.331 110.685 226.292 129.789 241.978C155.932 263.562 190.118 270.903 223.298 262.119C227.006 261.115 230.023 260.487 230.023 260.738C230.023 260.989 227.949 262.307 225.498 263.75C206.959 274.291 185.53 279.562 164.353 278.746C137.456 277.679 114.205 269.021 93.9695 252.582C84.606 244.927 73.86 232.566 67.8272 222.464C64.8107 217.445 60.2233 208.159 59.4063 205.523C59.155 204.645 58.7151 203.641 58.4637 203.327C57.7724 202.449 55.0702 193.037 53.4992 186.386C51.6139 177.979 50.6713 166.936 51.1112 156.897C52.5565 123.329 67.2616 94.0899 94.2208 71C97.3001 68.3648 108.36 61.1492 113.388 58.4512C126.145 51.6121 143.489 46.5926 158.32 45.5886C161.965 45.2749 165.295 45.024 165.609 45.024C165.986 44.9612 170.323 45.2122 175.35 45.5259ZM210.856 74.0745C224.053 76.8352 237.752 83.1096 247.555 90.9527C251.452 94.0271 261.381 104.568 264.271 108.584C268.545 114.67 273.635 124.897 275.834 131.736C278.662 140.521 279.793 148.175 279.856 158.465C279.856 168.63 278.914 175.03 275.772 184.818C273.132 193.1 266.471 206.151 266.471 203.076C266.471 202.763 266.785 201.696 267.162 200.692C267.539 199.751 268.419 195.986 269.11 192.347C270.87 183.375 270.43 169.822 268.168 160.912C262.009 137.258 247.807 120.003 225.812 109.713C193.448 94.5918 154.612 104.631 132.743 133.681C126.207 142.403 121.117 154.387 119.106 165.618C117.347 175.845 118.164 189.649 121.054 199.751C121.62 201.633 121.934 203.265 121.746 203.453C121.306 203.892 118.666 199.312 115.713 192.849C110.623 181.932 107.418 163.736 108.423 151.877C109.869 134.56 116.278 118.058 126.647 105.196C131.298 99.2976 140.347 90.8899 145.5 87.439C156.749 80.0352 170.134 74.8902 182.64 73.1961C188.798 72.3176 204.886 72.8196 210.856 74.0745Z" fill="url(#paint0_linear_41_688)"/>
<path d="M510.985 22.5448C501.485 23.6977 490.124 28.3732 484.99 33.1768C479.534 38.3006 475.105 45.9863 472.666 54.4406C471.575 58.2835 471.446 62.3185 471.254 111.251C471.061 161.401 471.125 164.155 472.345 170.047C475.297 184.394 483.385 194.962 495.452 200.214C508.161 205.658 508.867 205.722 591.474 205.465C655.724 205.209 661.822 205.081 666.187 204.056C679.281 200.982 687.753 195.154 693.979 184.97C696.483 180.935 699.307 173.249 700.013 168.574L700.462 165.884H612.912C555.273 165.884 524.4 165.628 522.474 165.179C518.751 164.347 515.67 162.233 514.643 159.799C513.552 157.173 513.039 74.2955 514.13 69.4278C514.836 65.9693 516.248 64.24 519.714 62.5107C521.576 61.614 530.048 61.4859 610.666 61.4859C662.271 61.4859 699.692 61.2297 699.884 60.9095C700.077 60.5892 699.564 57.579 698.729 54.1844C693.915 35.4184 681.399 25.1067 660.217 22.4167C653.67 21.5841 517.66 21.7122 510.985 22.5448Z" fill="#3E4FE3"/>
<path d="M742.632 23.0573C737.561 23.4416 734.866 25.1068 733.389 28.8216C732.491 31.1273 732.362 37.9164 732.362 94.3425C732.362 168.574 732.426 169.535 738.267 181.255C744.558 193.745 756.753 201.687 772.479 203.608C776.394 204.056 804.957 204.313 861.055 204.313C940.389 204.313 943.984 204.249 946.487 203.096C948.027 202.391 949.696 200.982 950.466 199.701C951.814 197.588 951.879 196.627 951.879 184.778C951.879 172.865 951.814 171.969 950.466 169.599C947.578 164.539 954.831 164.987 863.173 164.603C781.336 164.283 781.208 164.283 779.411 162.938C775.495 160.056 775.688 163.898 775.367 93.1897C775.11 43.4245 774.853 28.1811 774.276 27.0923C773.826 26.3878 772.479 25.1068 771.195 24.3382C769.205 23.1213 767.986 22.9932 757.908 22.8651C751.811 22.8011 744.943 22.8651 742.632 23.0573Z" fill="#3E4FE3"/>
<path d="M1171.27 23.0573C1169.98 23.2494 1168.19 23.9539 1167.29 24.5304C1164.01 26.708 1163.76 28.053 1163.69 44.2571C1163.63 52.5193 1163.63 59.8848 1163.63 60.6534L1163.69 62.1264L1247.01 62.2545C1340.14 62.4467 1332.31 62.0624 1334.81 67.0581C1335.97 69.2998 1336.03 71.1572 1336.03 90.6277C1336.03 114.197 1335.9 114.902 1331.92 117.336L1329.61 118.809L1278.78 119.001C1236.87 119.129 1227.88 119.321 1227.88 120.026C1227.88 120.474 1229.42 122.267 1231.28 123.869C1233.08 125.534 1242.58 134.629 1252.27 144.044C1261.96 153.459 1270.82 161.977 1271.85 162.938C1272.94 163.898 1279.16 169.919 1285.71 176.324C1292.26 182.729 1301.37 191.631 1306.06 196.115L1314.53 204.313H1344.7C1369.92 204.313 1374.87 204.185 1374.87 203.416C1374.87 202.968 1373.52 201.302 1371.85 199.829C1370.18 198.356 1362.48 191.055 1354.71 183.561C1346.94 176.132 1338.02 167.613 1334.94 164.667C1330.45 160.376 1329.42 159.095 1330.06 158.518C1330.51 158.134 1333.98 157.302 1337.77 156.725C1362.8 152.882 1375.19 141.802 1378.4 120.474C1379.81 111.443 1379.74 68.211 1378.4 60.7814C1375.44 45.0257 1368.77 35.0342 1357.21 29.0137C1347.91 24.2101 1344.83 23.6337 1324.8 22.9932C1304.07 22.3527 1174.73 22.4168 1171.27 23.0573Z" fill="#3E4FE3"/>
<path d="M1078.33 23.5056C1076.01 24.3382 1072.68 28.5654 1065.3 39.9019C1053.23 58.4757 1042.7 74.6158 1035.32 86.0163C1031.66 91.7166 1024.99 101.964 1020.56 108.689C1016.13 115.478 1009.97 125.021 1006.82 129.825C1003.68 134.693 997.13 144.684 992.316 152.114C987.502 159.479 982.175 167.741 980.442 170.367C978.773 172.993 975.435 178.053 973.124 181.576C965.422 193.296 964.652 195.73 967.476 199.893C970.236 203.992 971.584 204.313 988.401 204.313C1005.28 204.313 1007.4 203.928 1010.48 200.534C1012.92 197.78 1029.93 171.776 1047.9 143.147C1051.05 138.215 1056.76 129.249 1060.67 123.292C1067.35 113.173 1069.15 110.354 1076.59 98.7618C1089.69 78.5227 1094.05 71.9898 1094.63 71.6055C1095.72 70.901 1096.62 72.0539 1104.38 84.1589C1108.49 90.4997 1113.44 98.2495 1115.42 101.324C1122.1 111.635 1138.92 137.639 1145.27 147.502C1161.77 173.121 1177.81 197.652 1179.8 200.086C1183.08 204.185 1183.65 204.313 1200.54 204.313C1210.48 204.313 1216.77 204.056 1218.38 203.544C1221.14 202.711 1223.58 200.021 1224.28 197.139C1225.05 193.745 1223.84 191.567 1204.64 162.233C1201.37 157.173 1195.21 147.758 1190.97 141.226C1186.74 134.693 1179.8 123.997 1175.57 117.528C1166 102.797 1154.64 85.2477 1145.53 71.2213C1141.74 65.3289 1138.34 60.0769 1138.02 59.5646C1137.63 59.0522 1134.94 54.9531 1132.05 50.4698C1129.16 45.9864 1124.54 38.813 1121.78 34.5859C1118.51 29.5261 1115.87 26.1956 1114.14 24.9787L1111.51 23.0573L1095.4 23.1213C1086.54 23.1213 1078.84 23.3135 1078.33 23.5056Z" fill="#3E4FE3"/>
<path d="M488.392 244.599C484.476 245.367 478.828 248.634 476.261 251.516C474.72 253.245 473.372 255.871 472.474 258.625C471.126 262.852 471.062 263.621 471.254 291.418L471.447 319.919L473.18 323.185C475.747 328.053 477.929 330.359 481.973 332.408C488.328 335.611 490.253 335.675 530.498 335.483C567.084 335.291 567.79 335.291 571.513 333.881C576.327 332.088 579.279 329.782 581.59 326.068C583.644 322.929 585.569 317.229 584.992 316.332C584.799 316.012 564.773 315.756 539.741 315.756C495.709 315.756 494.875 315.756 493.591 314.475C492.371 313.258 492.307 312.361 492.307 289.881C492.307 269.513 492.435 266.375 493.334 265.542C493.848 264.966 494.361 264.454 494.425 264.39C494.489 264.261 514.772 264.069 539.484 263.877L584.414 263.557L584.607 261.571C584.928 258.433 581.141 251.9 577.354 249.018C571.128 244.279 572.347 244.343 529.214 244.279C508.033 244.214 489.675 244.343 488.392 244.599Z" fill="#3E4FE3"/>
<path d="M1281.28 245.047C1279.42 245.495 1277.05 246.392 1275.95 246.905C1272.94 248.506 1269.02 252.349 1267.61 255.039C1264.85 260.483 1264.46 264.197 1264.46 288.856C1264.46 301.794 1264.79 314.091 1265.11 316.396C1266.45 324.723 1271.14 330.871 1278.52 333.817L1282.12 335.291H1321.59H1361.06L1365.43 333.689C1370.89 331.768 1375.25 327.477 1377.5 321.84C1378.84 318.254 1378.97 316.909 1379.23 303.523L1379.49 289.048L1377.88 287.191L1376.28 285.333H1350.22H1324.22L1322.75 286.806C1321.4 288.151 1321.27 288.856 1321.27 294.94C1321.27 305.06 1320.11 304.484 1341.23 304.74L1358.3 304.932L1358.05 309.479C1357.86 312.938 1357.53 314.155 1356.57 314.859C1355.61 315.628 1349.51 315.756 1322.36 315.756C1301.37 315.756 1288.98 315.5 1288.21 315.115C1287.51 314.731 1286.67 313.386 1286.29 312.041C1285.58 309.479 1285.52 270.73 1286.22 267.4C1286.48 266.247 1287.25 265.158 1288.28 264.71C1289.5 264.133 1300.54 263.877 1333.98 263.877C1358.24 263.813 1378.2 263.557 1378.4 263.237C1378.59 262.981 1378.14 260.931 1377.5 258.817C1375.19 251.452 1370.37 247.097 1362.28 244.983C1356.96 243.638 1286.48 243.638 1281.28 245.047Z" fill="#3E4FE3"/>
<path d="M603.284 245.88L601.744 247.097L601.551 279.377C601.423 299.68 601.615 313.194 602.065 315.948C603.348 324.21 607.906 330.167 615.287 333.113L619.074 334.65L663.041 334.842C695.648 334.97 707.394 334.842 708.421 334.266C710.668 333.049 711.309 330.487 711.117 324.21C710.732 314.795 715.481 315.756 668.112 315.756C628.253 315.756 624.979 315.628 623.76 313.642C623.503 313.194 623.246 298.719 623.246 281.426C623.246 249.018 623.054 246.584 620.679 245.303C620.037 244.919 616.186 244.663 612.142 244.663C605.852 244.663 604.568 244.855 603.284 245.88Z" fill="#3E4FE3"/>
<path d="M722.221 245.944C720.937 247.161 720.809 247.929 720.809 254.142C720.809 259.33 721.066 261.379 721.836 262.468L722.799 263.877H772.094C829.733 263.877 824.277 264.646 824.662 256.576C824.983 250.555 824.47 247.545 822.801 245.88C821.645 244.727 820.233 244.663 772.607 244.663C724.211 244.663 723.633 244.663 722.221 245.944Z" fill="#3E4FE3"/>
<path d="M889.811 245.624C888.527 246.52 885.125 251.452 874.47 267.912C872.031 271.691 867.282 279.057 863.88 284.244C845.715 312.041 835.124 328.565 834.803 329.718C834.226 331.448 835.574 334.138 837.243 334.586C837.949 334.778 842.121 334.97 846.421 334.97C854.123 334.97 854.316 334.906 856.242 333.177C857.91 331.64 864.714 321.392 876.91 301.986C879.092 298.463 881.146 295.261 881.403 294.94C882.044 294.172 882.686 293.147 891.48 279.377C895.138 273.676 898.476 269.001 898.925 269.001C899.375 269.001 902.327 272.972 905.408 277.776C908.489 282.643 913.367 290.201 916.256 294.62C919.144 299.039 923.059 305.06 924.921 308.07C932.816 320.624 941.802 333.753 942.893 334.33C943.535 334.65 947.835 334.97 952.392 334.97C960.287 334.97 960.672 334.906 962.084 333.433C964.203 331.191 963.689 329.91 957.142 319.791C954.061 315.051 949.761 308.39 947.514 304.996C945.332 301.601 941.16 295.197 938.271 290.777C932.174 281.426 930.505 278.8 919.144 261.315C914.523 254.078 909.901 247.417 909.003 246.392C907.398 244.663 907.27 244.663 899.246 244.663C893.149 244.663 890.838 244.919 889.811 245.624Z" fill="#3E4FE3"/>
<path d="M974.344 245.944C973.06 247.225 973.06 248.057 973.06 289.624C973.124 326.452 973.253 332.28 974.087 333.369C974.921 334.522 975.948 334.65 982.881 334.842C990.005 335.034 990.904 334.97 992.316 333.817L993.921 332.536L994.241 301.858L994.562 271.243L999.697 276.11C1002.52 278.736 1009.9 285.653 1016.06 291.418C1028.13 302.69 1056.89 329.59 1057.79 330.487C1057.98 330.679 1059.2 331.768 1060.55 332.921L1062.98 334.97H1071.84C1079.87 334.97 1080.89 334.842 1082.43 333.625L1084.1 332.344V290.201C1084.1 248.506 1084.1 247.993 1082.75 246.328C1081.47 244.663 1081.34 244.663 1073.51 244.663C1066.13 244.663 1065.42 244.791 1064.2 246.072C1062.92 247.417 1062.92 248.185 1062.92 277.327C1062.92 293.788 1062.73 307.43 1062.54 307.622C1062.28 307.878 1061.64 307.558 1061.06 306.917C1060.48 306.341 1058.3 304.291 1056.18 302.37C1054.06 300.448 1049.57 296.221 1046.23 293.083C1042.83 289.881 1037.95 285.205 1035.26 282.771C1032.62 280.273 1023.57 271.819 1015.1 263.877C1006.63 255.935 998.542 248.378 997.13 247.033L994.562 244.663H985.127C976.462 244.663 975.499 244.791 974.344 245.944Z" fill="#3E4FE3"/>
<path d="M1101.56 246.136L1100.15 247.609V289.624C1100.15 340.158 1098.93 334.97 1110.48 334.97C1117.8 334.97 1118.25 334.906 1119.73 333.369L1121.33 331.832V289.817V247.801L1119.73 246.264C1118.25 244.727 1117.8 244.663 1110.55 244.663C1103.42 244.663 1102.84 244.727 1101.56 246.136Z" fill="#3E4FE3"/>
<path d="M1138.66 246.072C1137.38 247.417 1137.38 248.057 1137.38 289.24C1137.38 318.766 1137.57 331.512 1138.08 332.665C1139.05 334.714 1140.2 334.97 1148.48 334.97C1154.96 334.97 1155.48 334.906 1156.95 333.369L1158.56 331.832V301.665C1158.56 283.988 1158.81 271.563 1159.14 271.691C1159.46 271.755 1161.83 273.869 1164.46 276.302C1167.03 278.736 1173.32 284.629 1178.46 289.432C1183.53 294.236 1190.07 300.32 1192.9 303.01C1195.72 305.7 1200.21 309.864 1202.85 312.297C1205.48 314.731 1210.1 319.022 1213.12 321.905C1223.84 332.024 1226.08 334.01 1227.11 334.458C1227.69 334.714 1231.92 334.906 1236.42 334.906C1244.37 334.97 1246.75 334.522 1247.9 332.793C1248.16 332.408 1248.42 313.066 1248.42 289.752V247.417L1246.94 246.072C1245.59 244.791 1244.76 244.663 1237.7 244.663C1230.7 244.663 1229.87 244.791 1228.78 246.008C1227.62 247.289 1227.56 249.018 1227.24 277.711L1226.92 308.07L1225.05 306.469C1224.03 305.572 1220.88 302.626 1217.99 299.936C1215.11 297.182 1210.29 292.635 1207.28 289.817C1204.26 286.998 1199.38 282.387 1196.36 279.569C1193.35 276.751 1186.61 270.41 1181.34 265.478C1176.08 260.547 1169.73 254.59 1167.22 252.284C1158.49 244.022 1160.03 244.663 1149.32 244.663C1140.52 244.663 1139.94 244.727 1138.66 246.072Z" fill="#3E4FE3"/>
<path d="M722.414 281.49C720.873 282.963 720.809 283.476 720.809 290.009C720.809 296.285 720.937 297.118 722.157 298.207C723.441 299.36 725.238 299.424 771.901 299.424H820.233L821.71 298.015C824.341 295.389 824.149 283.668 821.389 281.17C820.105 279.889 819.014 279.889 772.03 279.889H723.954L722.414 281.49Z" fill="#3E4FE3"/>
<path d="M721.836 317.165C721.066 318.254 720.809 320.303 720.809 325.363C720.809 330.423 721.066 332.472 721.836 333.561L722.799 334.97H772.222C803.224 334.97 822.095 334.714 822.865 334.33C824.598 333.433 825.432 330.231 825.432 324.787C825.432 321.072 825.111 319.407 824.149 317.805L822.865 315.756H772.864H722.799L721.836 317.165Z" fill="#3E4FE3"/>
</g>
<defs>
<linearGradient id="paint0_linear_41_688" x1="174.991" y1="356.269" x2="174.879" y2="70.3098" gradientUnits="userSpaceOnUse">
<stop stop-color="#2B2E63"/>
<stop offset="1" stop-color="#3E4FE3"/>
</linearGradient>
<clipPath id="clip0_41_688">
<rect width="1380" height="356.747" fill="white"/>
</clipPath>
</defs>
</svg>
