<svg width="1100" height="1100" viewBox="0 0 1100 1100" fill="none" xmlns="http://www.w3.org/2000/svg">
<path d="M521.859 10.9317C343.409 19.4995 180.562 117.056 86.9488 271.666C47.5534 336.704 21.6148 412.646 12.6435 489.756C6.98772 536.295 10.6932 609.705 21.0297 660.139C50.0887 803.066 138.631 930.025 263.448 1008.11C284.511 1021.35 328.977 1043.55 353.161 1053.09C461.206 1095.73 585.633 1101.58 697.384 1069.84C737.559 1058.35 790.997 1037.32 790.997 1032.84C790.997 1032.06 786.316 1031.87 780.66 1032.45C766.423 1033.81 713.181 1029.72 684.122 1025.05C644.726 1018.62 605.136 1006.36 575.687 991.752C569.446 988.637 564.765 985.716 565.155 985.326C565.545 984.742 571.981 986.105 579.587 988.247C644.141 1006.16 752.381 1007.91 833.903 992.142C844.044 990.195 856.136 988.053 860.621 987.274C874.858 984.937 891.436 971.891 932.391 930.999C962.23 901.206 975.102 886.212 969.056 888.354C967.106 888.938 964.571 890.302 963.4 891.275C962.23 892.054 949.944 897.701 936.097 903.737C878.954 928.273 820.251 943.85 751.991 952.418C715.911 956.897 634.39 955.339 595.969 949.497C486.559 932.751 389.436 893.612 312.205 835.39C288.802 817.67 268.324 799.755 268.324 797.224C268.324 796.25 276.905 801.313 287.437 808.518C338.729 843.373 411.279 868.298 481.879 875.503C513.473 878.618 577.637 876.671 609.621 871.608C688.022 859.146 736.584 843.957 830.977 802.287C854.575 791.966 884.415 779.115 897.286 773.662C910.158 768.405 924.2 762.368 928.491 760.616C942.143 754.385 1009.43 729.071 1037.51 719.335C1052.33 714.272 1065.4 709.209 1066.37 708.235C1070.08 704.536 1079.83 663.644 1084.9 630.93C1089.39 602.111 1090.17 591.986 1089.97 553.041C1089.97 492.872 1084.51 452.174 1068.91 398.431C1046.48 320.736 1003.38 243.626 949.944 186.183C901.577 133.997 852.235 96.8046 791.972 66.6225C763.888 52.6025 751.991 47.7344 720.592 37.2194C675.54 22.2257 630.294 13.2684 590.119 11.5159C577.832 11.1264 563.79 10.3476 558.914 10.1528C554.039 9.76339 537.461 10.1528 521.859 10.9317ZM551.113 125.624C597.335 128.739 631.854 137.112 673.98 155.416C693.093 163.789 721.762 179.951 720.202 181.509C719.617 181.899 713.181 180.536 705.77 178.394C673.785 168.852 625.809 163.205 596.945 165.347C512.108 172.163 444.823 202.345 387.291 259.983C337.949 309.053 309.67 363.186 296.213 434.26C291.532 459.574 291.922 512.344 297.188 542.331C310.84 618.468 350.43 686.621 409.719 735.302C490.85 802.287 596.945 825.069 699.919 797.808C711.425 794.692 720.787 792.745 720.787 793.524C720.787 794.303 714.351 798.392 706.745 802.871C649.212 835.584 582.708 851.941 516.983 849.41C433.512 846.099 361.352 819.228 298.553 768.21C269.494 744.454 236.145 706.093 217.422 674.743C208.061 659.165 193.824 630.346 191.288 622.168C190.508 619.442 189.143 616.326 188.363 615.352C186.218 612.626 177.831 583.418 172.956 562.777C167.105 536.684 164.18 502.413 165.545 471.257C170.03 367.08 215.667 276.339 299.333 204.681C308.89 196.503 343.214 174.11 358.817 165.737C398.407 144.512 452.234 128.934 498.261 125.818C509.572 124.845 519.909 124.066 520.884 124.066C522.054 123.871 535.511 124.65 551.113 125.624ZM661.304 214.223C702.259 222.791 744.775 242.263 775.199 266.603C787.291 276.145 818.105 308.858 827.077 321.32C840.338 340.209 856.136 371.949 862.962 393.173C871.738 420.435 875.248 444.191 875.443 476.125C875.443 507.671 872.518 527.532 862.767 557.909C854.575 583.613 833.903 624.115 833.903 614.574C833.903 613.6 834.878 610.29 836.048 607.174C837.218 604.253 839.948 592.57 842.094 581.276C847.554 553.43 846.189 511.37 839.168 483.72C820.056 410.309 775.979 356.76 707.72 324.826C607.281 277.897 486.754 309.053 418.885 399.21C398.602 426.276 382.805 463.468 376.564 498.324C371.103 530.064 373.639 572.903 382.61 604.253C384.365 610.095 385.34 615.158 384.755 615.742C383.39 617.105 375.199 602.89 366.033 582.834C350.235 548.952 340.289 492.482 343.409 455.679C347.895 401.936 367.788 350.724 399.967 310.805C414.399 292.501 442.483 266.409 458.475 255.699C493.385 232.721 534.926 216.754 573.736 211.497C592.849 208.77 642.776 210.328 661.304 214.223Z" fill="url(#paint0_linear_41_685)"/>
<defs>
<linearGradient id="paint0_linear_41_685" x1="550" y1="1090" x2="549.652" y2="202.539" gradientUnits="userSpaceOnUse">
<stop stop-color="#2B2E63"/>
<stop offset="1" stop-color="#3E4FE3"/>
</linearGradient>
</defs>
</svg>
