<svg width="783" height="50" viewBox="0 0 783 50" fill="none" xmlns="http://www.w3.org/2000/svg">
<path d="M10.7547 0.188426C8.18865 0.502231 5.11974 1.77488 3.73267 3.0824C2.2589 4.47709 1.06255 6.56912 0.403688 8.87035C0.108934 9.91637 0.0742572 11.0147 0.0222418 24.3339C-0.0297735 37.9844 -0.0124351 38.7341 0.316995 40.338C1.11456 44.2431 3.29921 47.1197 6.55884 48.5492C9.99185 50.0311 10.1826 50.0485 32.4971 49.9788C49.8529 49.909 51.5001 49.8742 52.6791 49.5952C56.2161 48.7584 58.5048 47.172 60.1866 44.4C60.8628 43.3017 61.6257 41.2097 61.8165 39.937L61.9378 39.2048H38.2882C22.7183 39.2048 14.3785 39.1351 13.8583 39.013C12.8527 38.7864 12.0204 38.2111 11.743 37.5486C11.4483 36.8338 11.3096 14.2748 11.6043 12.9498C11.795 12.0084 12.1765 11.5377 13.1128 11.067C13.6156 10.8229 15.9043 10.788 37.6813 10.788C51.6214 10.788 61.7298 10.7183 61.7818 10.6311C61.8338 10.544 61.6951 9.7246 61.4697 8.80062C60.1693 3.69258 56.7883 0.88577 51.0666 0.153559C49.2981 -0.0730779 12.5579 -0.0382107 10.7547 0.188426Z" fill="#3E4FE3"/>
<path d="M73.3292 0.327981C71.9595 0.432583 71.2313 0.885856 70.8325 1.897C70.5897 2.52461 70.5551 4.37257 70.5551 19.7316C70.5551 39.9371 70.5724 40.1986 72.1502 43.3889C73.8494 46.7885 77.1437 48.9503 81.3916 49.4733C82.4492 49.5953 90.1648 49.665 105.319 49.665C126.749 49.665 127.72 49.6476 128.396 49.3338C128.812 49.142 129.263 48.7585 129.471 48.4098C129.835 47.8345 129.853 47.573 129.853 44.3478C129.853 41.1051 129.835 40.8611 129.471 40.216C128.691 38.8388 130.65 38.9608 105.891 38.8562C83.7843 38.769 83.7496 38.769 83.2641 38.4029C82.2065 37.6184 82.2585 38.6644 82.1718 19.4178C82.1025 5.87186 82.0331 1.72267 81.8771 1.4263C81.7557 1.23453 81.3916 0.885856 81.0448 0.676653C80.5073 0.345415 80.1779 0.310548 77.4558 0.275681C75.8086 0.258247 73.9534 0.275681 73.3292 0.327981Z" fill="#3E4FE3"/>
<path d="M189.115 0.327971C188.769 0.380272 188.283 0.572041 188.04 0.728943C187.156 1.32169 187.087 1.68779 187.069 6.09849C187.052 8.34742 187.052 10.3523 187.052 10.5615L187.069 10.9625L209.575 10.9973C234.733 11.0496 232.617 10.945 233.294 12.3048C233.606 12.915 233.623 13.4206 233.623 18.7204C233.623 25.136 233.588 25.3277 232.513 25.9902L231.889 26.3912L218.157 26.4435C206.835 26.4784 204.408 26.5307 204.408 26.7224C204.408 26.8445 204.824 27.3326 205.327 27.7684C205.812 28.2217 208.378 30.6973 210.996 33.26C213.614 35.8228 216.007 38.1414 216.285 38.4029C216.579 38.6644 218.261 40.3032 220.03 42.0466C221.798 43.7899 224.26 46.2132 225.526 47.4335L227.815 49.665H235.964C242.778 49.665 244.113 49.6302 244.113 49.421C244.113 49.2989 243.749 48.8457 243.298 48.4447C242.847 48.0437 240.767 46.0563 238.669 44.0166C236.571 41.9943 234.161 39.6756 233.328 38.8736C232.115 37.7056 231.837 37.3569 232.011 37.2C232.132 37.0954 233.068 36.8688 234.091 36.7119C240.853 35.6659 244.2 32.6499 245.066 26.8445C245.448 24.3863 245.431 12.6187 245.066 10.5964C244.269 6.30769 242.466 3.58805 239.345 1.94929C236.831 0.641775 235.998 0.484873 230.589 0.310537C224.989 0.136201 190.052 0.153635 189.115 0.327971Z" fill="#3E4FE3"/>
<path d="M164.009 0.450011C163.385 0.676648 162.484 1.82726 160.49 4.91301C157.23 9.96875 154.387 14.362 152.393 17.4652C151.404 19.0168 149.601 21.8062 148.405 23.6367C147.208 25.4846 145.544 28.0823 144.694 29.3898C143.845 30.7147 142.076 33.4344 140.776 35.4567C139.475 37.4615 138.036 39.7105 137.568 40.4252C137.117 41.14 136.216 42.5173 135.592 43.4761C133.511 46.6665 133.303 47.3289 134.066 48.4621C134.811 49.5779 135.176 49.665 139.718 49.665C144.278 49.665 144.85 49.5604 145.683 48.6365C146.342 47.8868 150.936 40.8088 155.791 33.016C156.641 31.6736 158.184 29.2329 159.241 27.6115C161.045 24.857 161.53 24.09 163.541 20.9345C167.078 15.4255 168.257 13.6472 168.413 13.5426C168.708 13.3509 168.951 13.6647 171.049 16.9596C172.158 18.6855 173.494 20.795 174.031 21.6318C175.834 24.4386 180.377 31.5167 182.093 34.2014C186.549 41.1749 190.884 47.8519 191.421 48.5144C192.306 49.6302 192.462 49.665 197.022 49.665C199.709 49.665 201.408 49.5953 201.842 49.4558C202.587 49.2292 203.246 48.497 203.437 47.7125C203.645 46.7885 203.316 46.1958 198.131 38.2112C197.247 36.8339 195.583 34.2712 194.438 32.493C193.294 30.7147 191.421 27.8033 190.277 26.0425C187.694 22.0328 184.625 17.256 182.163 13.438C181.14 11.8341 180.221 10.4046 180.134 10.2651C180.03 10.1257 179.302 9.0099 178.522 7.78955C177.741 6.5692 176.493 4.61664 175.748 3.46602C174.863 2.08877 174.152 1.18222 173.684 0.850984L172.973 0.327976L168.621 0.34541C166.229 0.34541 164.148 0.39771 164.009 0.450011Z" fill="#3E4FE3"/>
<path d="M299.677 0.336466C297.555 0.756167 294.494 2.5399 293.103 4.11377C292.268 5.0581 291.538 6.49208 291.051 7.99601C290.32 10.3044 290.285 10.7241 290.39 25.9032L290.494 41.4672L291.433 43.2509C292.825 45.909 294.007 47.1681 296.199 48.2873C299.642 50.036 300.686 50.071 322.495 49.9661C342.322 49.8612 342.705 49.8612 344.723 49.0917C347.331 48.1124 348.931 46.8533 350.184 44.8248C351.297 43.111 352.34 39.9982 352.027 39.5085C351.923 39.3337 341.07 39.1938 327.504 39.1938C303.642 39.1938 303.19 39.1938 302.495 38.4943C301.834 37.8297 301.799 37.3401 301.799 25.0638C301.799 13.9418 301.868 12.228 302.355 11.7733C302.634 11.4585 302.912 11.1787 302.947 11.1438C302.982 11.0738 313.973 10.9689 327.365 10.864L351.714 10.6891L351.819 9.60486C351.992 7.89108 349.94 4.32362 347.888 2.74975C344.514 0.161591 345.175 0.196566 321.8 0.161591C310.321 0.126616 300.373 0.196566 299.677 0.336466Z" fill="#3E4FE3"/>
<path d="M729.366 0.581449C728.358 0.826274 727.071 1.31593 726.479 1.59573C724.844 2.4701 722.723 4.56861 721.957 6.03756C720.462 9.01044 720.253 11.039 720.253 24.5044C720.253 31.5694 720.427 38.2846 720.601 39.5437C721.331 44.0904 723.87 47.448 727.871 49.0569L729.819 49.8613H751.211H772.603L774.968 48.987C777.925 47.9377 780.29 45.5944 781.508 42.5166C782.238 40.558 782.308 39.8235 782.447 32.5137L782.586 24.6093L781.717 23.595L780.847 22.5808H766.725H752.637L751.837 23.3852C751.107 24.1197 751.037 24.5044 751.037 27.827C751.037 33.3531 750.411 33.0383 761.855 33.1782L771.107 33.2831L770.968 35.7664C770.864 37.655 770.69 38.3196 770.168 38.7043C769.646 39.124 766.342 39.1939 751.628 39.1939C740.254 39.1939 733.54 39.054 733.123 38.8442C732.74 38.6343 732.288 37.8999 732.08 37.1654C731.697 35.7664 731.662 14.6065 732.045 12.7877C732.184 12.1582 732.601 11.5636 733.158 11.3188C733.819 11.004 739.802 10.8641 757.924 10.8641C771.073 10.8291 781.891 10.6892 781.995 10.5144C782.099 10.3745 781.856 9.25527 781.508 8.10109C780.256 4.07896 777.647 1.70065 773.264 0.546473C770.377 -0.188003 732.184 -0.188003 729.366 0.581449Z" fill="#3E4FE3"/>
<path d="M361.941 1.03594L361.106 1.70047L361.002 19.3279C360.932 30.415 361.036 37.7947 361.28 39.2987C361.976 43.8105 364.445 47.0631 368.445 48.672L370.498 49.5114L394.325 49.6163C411.995 49.6863 418.361 49.6163 418.917 49.3016C420.135 48.637 420.483 47.238 420.378 43.8105C420.17 38.6691 422.744 39.1938 397.073 39.1938C375.472 39.1938 373.698 39.1238 373.037 38.0396C372.898 37.7947 372.759 29.8904 372.759 20.4471C372.759 2.74972 372.654 1.42067 371.367 0.721166C371.019 0.511316 368.932 0.371415 366.741 0.371415C363.332 0.371415 362.636 0.476341 361.941 1.03594Z" fill="#3E4FE3"/>
<path d="M426.396 1.07123C425.7 1.73576 425.631 2.15546 425.631 5.54804C425.631 8.38102 425.77 9.50023 426.187 10.0948L426.709 10.8643H453.423C484.659 10.8643 481.703 11.284 481.911 6.8771C482.085 3.58944 481.807 1.94561 480.903 1.03626C480.277 0.406708 479.511 0.371733 453.701 0.371733C427.474 0.371733 427.161 0.371733 426.396 1.07123Z" fill="#3E4FE3"/>
<path d="M517.217 0.896295C516.522 1.38595 514.678 4.07903 508.904 13.0676C507.582 15.1312 505.008 19.1533 503.164 21.9863C493.32 37.1654 487.581 46.189 487.407 46.8186C487.094 47.7629 487.825 49.2318 488.729 49.4767C489.112 49.5816 491.373 49.6865 493.703 49.6865C497.877 49.6865 497.982 49.6515 499.025 48.7072C499.929 47.8678 503.617 42.2718 510.226 31.6744C511.408 29.7507 512.521 28.002 512.661 27.8271C513.008 27.4074 513.356 26.8478 518.122 19.3282C520.104 16.2154 521.913 13.6622 522.157 13.6622C522.4 13.6622 524 15.8307 525.67 18.4538C527.339 21.1119 529.983 25.2389 531.548 27.6522C533.114 30.0655 535.235 33.3532 536.244 34.997C540.523 41.8521 545.392 49.022 545.984 49.3368C546.332 49.5116 548.662 49.6865 551.132 49.6865C555.41 49.6865 555.619 49.6515 556.384 48.8471C557.532 47.623 557.254 46.9235 553.706 41.3974C552.036 38.8093 549.706 35.1719 548.488 33.3182C547.306 31.4645 545.045 27.967 543.479 25.5537C540.175 20.4474 539.27 19.0134 533.114 9.46519C530.609 5.513 528.105 1.8756 527.618 1.316C526.748 0.371669 526.679 0.371669 522.331 0.371669C519.026 0.371669 517.774 0.511569 517.217 0.896295Z" fill="#3E4FE3"/>
<path d="M563.028 1.07117C562.333 1.77067 562.333 2.22535 562.333 24.9242C562.367 45.0348 562.437 48.2176 562.889 48.8121C563.341 49.4417 563.898 49.5116 567.655 49.6166C571.516 49.7215 572.003 49.6865 572.768 49.057L573.637 48.3575L573.811 31.6044L573.985 14.8863L576.768 17.5444C578.298 18.9784 582.299 22.7557 585.638 25.9035C592.177 32.0591 607.761 46.7486 608.248 47.2383C608.352 47.3432 609.013 47.9378 609.743 48.5673L611.065 49.6865H615.865C620.213 49.6865 620.77 49.6166 621.605 48.952L622.509 48.2525V25.2389C622.509 2.47017 622.509 2.19037 621.779 1.28102C621.083 0.371669 621.013 0.371669 616.77 0.371669C612.77 0.371669 612.387 0.441619 611.726 1.14112C611.03 1.8756 611.03 2.2953 611.03 18.209C611.03 27.1976 610.926 34.6472 610.822 34.7522C610.683 34.8921 610.335 34.7172 610.022 34.3674C609.709 34.0527 608.526 32.9335 607.378 31.8842C606.23 30.835 603.795 28.5266 601.987 26.8128C600.143 25.0641 597.499 22.5109 596.038 21.1818C594.612 19.8178 589.708 15.2011 585.116 10.8642C580.525 6.52728 576.142 2.40022 575.377 1.66575L573.985 0.371669H568.872C564.176 0.371669 563.654 0.441619 563.028 1.07117Z" fill="#3E4FE3"/>
<path d="M631.97 1.17591L631.205 1.98034V24.924C631.205 52.5193 630.544 49.6863 636.805 49.6863C640.771 49.6863 641.014 49.6514 641.814 48.812L642.684 47.9726V25.0289V2.08526L641.814 1.24586C641.014 0.406457 640.771 0.371482 636.84 0.371482C632.979 0.371482 632.666 0.406457 631.97 1.17591Z" fill="#3E4FE3"/>
<path d="M652.076 1.14111C651.38 1.87559 651.38 2.22534 651.38 24.7143C651.38 40.8378 651.484 47.7979 651.763 48.4274C652.285 49.5466 652.911 49.6865 657.398 49.6865C660.911 49.6865 661.189 49.6515 661.989 48.8121L662.859 47.9727V31.4995C662.859 21.8464 662.998 15.0612 663.172 15.1311C663.346 15.1661 664.633 16.3203 666.059 17.6493C667.45 18.9784 670.859 22.1961 673.642 24.8192C676.39 27.4424 679.938 30.765 681.468 32.234C682.999 33.7029 685.434 35.9763 686.86 37.3053C688.286 38.6344 690.791 40.9777 692.425 42.5516C698.234 48.0777 699.452 49.1619 700.008 49.4067C700.321 49.5466 702.617 49.6515 705.052 49.6515C709.365 49.6865 710.652 49.4417 711.279 48.4974C711.418 48.2875 711.557 37.725 711.557 24.9941V1.87559L710.757 1.14111C710.026 0.441608 709.574 0.371658 705.748 0.371658C701.956 0.371658 701.504 0.441608 700.913 1.10613C700.287 1.80564 700.252 2.74996 700.078 18.4188L699.904 34.997L698.895 34.1226C698.339 33.633 696.634 32.0241 695.069 30.5552C693.504 29.0512 690.895 26.568 689.26 25.0291C687.625 23.4902 684.982 20.972 683.347 19.4331C681.712 17.8942 678.06 14.4316 675.207 11.7386C672.355 9.04548 668.911 5.7928 667.555 4.53369C662.824 0.0219074 663.659 0.371658 657.85 0.371658C653.085 0.371658 652.771 0.406633 652.076 1.14111Z" fill="#3E4FE3"/>
<path d="M426.5 20.4824C425.665 21.2868 425.631 21.5666 425.631 25.1341C425.631 28.5616 425.7 29.0163 426.361 29.6109C427.057 30.2404 428.031 30.2754 453.319 30.2754H479.511L480.311 29.5059C481.738 28.072 481.633 21.6715 480.137 20.3075C479.442 19.608 478.85 19.608 453.388 19.608H427.335L426.5 20.4824Z" fill="#3E4FE3"/>
<path d="M426.187 39.9635C425.77 40.558 425.631 41.6772 425.631 44.4403C425.631 47.2033 425.77 48.3225 426.187 48.9171L426.709 49.6865H453.493C470.294 49.6865 480.52 49.5466 480.937 49.3368C481.877 48.8471 482.329 47.0984 482.329 44.1255C482.329 42.0969 482.155 41.1876 481.633 40.3132L480.937 39.194H453.841H426.709L426.187 39.9635Z" fill="#3E4FE3"/>
</svg>
