<svg width="783" height="50" viewBox="0 0 783 50" fill="none" xmlns="http://www.w3.org/2000/svg">
<path d="M10.7547 0.188427C8.18865 0.502232 5.11974 1.77488 3.73267 3.0824C2.2589 4.47709 1.06255 6.56912 0.403688 8.87035C0.108934 9.91637 0.0742572 11.0147 0.0222418 24.334C-0.0297735 37.9844 -0.0124351 38.7341 0.316995 40.338C1.11456 44.2431 3.29921 47.1197 6.55884 48.5492C9.99185 50.0311 10.1826 50.0485 32.4971 49.9788C49.8529 49.909 51.5001 49.8742 52.6791 49.5952C56.2161 48.7584 58.5048 47.172 60.1866 44.4C60.8628 43.3017 61.6257 41.2097 61.8165 39.937L61.9378 39.2048H38.2882C22.7183 39.2048 14.3785 39.1351 13.8583 39.013C12.8527 38.7864 12.0204 38.2111 11.743 37.5486C11.4483 36.8338 11.3096 14.2748 11.6043 12.9498C11.795 12.0084 12.1765 11.5377 13.1128 11.067C13.6156 10.8229 15.9043 10.788 37.6813 10.788C51.6214 10.788 61.7298 10.7183 61.7818 10.6311C61.8338 10.544 61.6951 9.7246 61.4697 8.80062C60.1693 3.69258 56.7883 0.885769 51.0666 0.153561C49.2981 -0.0730782 12.5579 -0.0382118 10.7547 0.188427Z" fill="#3E4FE3"/>
<path d="M10.7547 0.188427C8.18865 0.502232 5.11974 1.77488 3.73267 3.0824C2.2589 4.47709 1.06255 6.56912 0.403688 8.87035C0.108934 9.91637 0.0742572 11.0147 0.0222418 24.334C-0.0297735 37.9844 -0.0124351 38.7341 0.316995 40.338C1.11456 44.2431 3.29921 47.1197 6.55884 48.5492C9.99185 50.0311 10.1826 50.0485 32.4971 49.9788C49.8529 49.909 51.5001 49.8742 52.6791 49.5952C56.2161 48.7584 58.5048 47.172 60.1866 44.4C60.8628 43.3017 61.6257 41.2097 61.8165 39.937L61.9378 39.2048H38.2882C22.7183 39.2048 14.3785 39.1351 13.8583 39.013C12.8527 38.7864 12.0204 38.2111 11.743 37.5486C11.4483 36.8338 11.3096 14.2748 11.6043 12.9498C11.795 12.0084 12.1765 11.5377 13.1128 11.067C13.6156 10.8229 15.9043 10.788 37.6813 10.788C51.6214 10.788 61.7298 10.7183 61.7818 10.6311C61.8338 10.544 61.6951 9.7246 61.4697 8.80062C60.1693 3.69258 56.7883 0.885769 51.0666 0.153561C49.2981 -0.0730782 12.5579 -0.0382118 10.7547 0.188427Z" fill="white" fill-opacity="0.4"/>
<path d="M73.3288 0.327736C71.9591 0.432339 71.2309 0.885612 70.8321 1.89676C70.5894 2.52437 70.5547 4.37233 70.5547 19.7313C70.5547 39.9369 70.572 40.1984 72.1498 43.3887C73.849 46.7883 77.1433 48.95 81.3912 49.473C82.4489 49.5951 90.1645 49.6648 105.318 49.6648C126.749 49.6648 127.72 49.6474 128.396 49.3336C128.812 49.1418 129.263 48.7582 129.471 48.4096C129.835 47.8343 129.852 47.5728 129.852 44.3476C129.852 41.1049 129.835 40.8608 129.471 40.2158C128.69 38.8385 130.65 38.9606 105.89 38.856C83.7839 38.7688 83.7492 38.7688 83.2638 38.4027C82.2061 37.6182 82.2581 38.6642 82.1714 19.4175C82.1021 5.87162 82.0327 1.72242 81.8767 1.42605C81.7553 1.23428 81.3912 0.885612 81.0444 0.676411C80.507 0.345169 80.1775 0.310303 77.4554 0.275436C75.8082 0.258003 73.953 0.275436 73.3288 0.327736Z" fill="#3E4FE3"/>
<path d="M73.3288 0.327736C71.9591 0.432339 71.2309 0.885612 70.8321 1.89676C70.5894 2.52437 70.5547 4.37233 70.5547 19.7313C70.5547 39.9369 70.572 40.1984 72.1498 43.3887C73.849 46.7883 77.1433 48.95 81.3912 49.473C82.4489 49.5951 90.1645 49.6648 105.318 49.6648C126.749 49.6648 127.72 49.6474 128.396 49.3336C128.812 49.1418 129.263 48.7582 129.471 48.4096C129.835 47.8343 129.852 47.5728 129.852 44.3476C129.852 41.1049 129.835 40.8608 129.471 40.2158C128.69 38.8385 130.65 38.9606 105.89 38.856C83.7839 38.7688 83.7492 38.7688 83.2638 38.4027C82.2061 37.6182 82.2581 38.6642 82.1714 19.4175C82.1021 5.87162 82.0327 1.72242 81.8767 1.42605C81.7553 1.23428 81.3912 0.885612 81.0444 0.676411C80.507 0.345169 80.1775 0.310303 77.4554 0.275436C75.8082 0.258003 73.953 0.275436 73.3288 0.327736Z" fill="white" fill-opacity="0.4"/>
<path d="M189.115 0.327728C188.768 0.380028 188.283 0.571796 188.04 0.728699C187.156 1.32144 187.086 1.68755 187.069 6.09825C187.052 8.34718 187.052 10.352 187.052 10.5612L187.069 10.9622L209.574 10.9971C234.732 11.0494 232.617 10.9448 233.293 12.3046C233.605 12.9148 233.623 13.4204 233.623 18.7202C233.623 25.1357 233.588 25.3275 232.513 25.99L231.889 26.3909L218.157 26.4432C206.835 26.4781 204.408 26.5304 204.408 26.7222C204.408 26.8442 204.824 27.3324 205.326 27.7682C205.812 28.2215 208.378 30.697 210.996 33.2598C213.614 35.8225 216.007 38.1412 216.284 38.4027C216.579 38.6642 218.261 40.303 220.029 42.0463C221.798 43.7897 224.26 46.2129 225.526 47.4333L227.814 49.6648H235.964C242.778 49.6648 244.113 49.6299 244.113 49.4207C244.113 49.2987 243.748 48.8454 243.298 48.4444C242.847 48.0435 240.766 46.056 238.668 44.0163C236.57 41.994 234.16 39.6753 233.328 38.8734C232.114 37.7053 231.837 37.3567 232.01 37.1998C232.132 37.0952 233.068 36.8685 234.091 36.7116C240.853 35.6656 244.199 32.6496 245.066 26.8442C245.448 24.3861 245.43 12.6184 245.066 10.5961C244.269 6.30745 242.465 3.58781 239.345 1.94905C236.83 0.641533 235.998 0.484631 230.589 0.310291C224.988 0.135956 190.051 0.153389 189.115 0.327728Z" fill="#3E4FE3"/>
<path d="M189.115 0.327728C188.768 0.380028 188.283 0.571796 188.04 0.728699C187.156 1.32144 187.086 1.68755 187.069 6.09825C187.052 8.34718 187.052 10.352 187.052 10.5612L187.069 10.9622L209.574 10.9971C234.732 11.0494 232.617 10.9448 233.293 12.3046C233.605 12.9148 233.623 13.4204 233.623 18.7202C233.623 25.1357 233.588 25.3275 232.513 25.99L231.889 26.3909L218.157 26.4432C206.835 26.4781 204.408 26.5304 204.408 26.7222C204.408 26.8442 204.824 27.3324 205.326 27.7682C205.812 28.2215 208.378 30.697 210.996 33.2598C213.614 35.8225 216.007 38.1412 216.284 38.4027C216.579 38.6642 218.261 40.303 220.029 42.0463C221.798 43.7897 224.26 46.2129 225.526 47.4333L227.814 49.6648H235.964C242.778 49.6648 244.113 49.6299 244.113 49.4207C244.113 49.2987 243.748 48.8454 243.298 48.4444C242.847 48.0435 240.766 46.056 238.668 44.0163C236.57 41.994 234.16 39.6753 233.328 38.8734C232.114 37.7053 231.837 37.3567 232.01 37.1998C232.132 37.0952 233.068 36.8685 234.091 36.7116C240.853 35.6656 244.199 32.6496 245.066 26.8442C245.448 24.3861 245.43 12.6184 245.066 10.5961C244.269 6.30745 242.465 3.58781 239.345 1.94905C236.83 0.641533 235.998 0.484631 230.589 0.310291C224.988 0.135956 190.051 0.153389 189.115 0.327728Z" fill="white" fill-opacity="0.4"/>
<path d="M164.01 0.449768C163.385 0.676403 162.484 1.82702 160.49 4.91277C157.23 9.96851 154.387 14.3618 152.393 17.465C151.405 19.0165 149.601 21.8059 148.405 23.6364C147.209 25.4844 145.544 28.082 144.695 29.3895C143.845 30.7145 142.077 33.4341 140.776 35.4564C139.476 37.4613 138.037 39.7102 137.569 40.425C137.118 41.1398 136.216 42.517 135.592 43.4759C133.511 46.6662 133.303 47.3287 134.066 48.4619C134.812 49.5776 135.176 49.6648 139.718 49.6648C144.278 49.6648 144.851 49.5602 145.683 48.6362C146.342 47.8866 150.936 40.8085 155.791 33.0157C156.641 31.6733 158.184 29.2326 159.242 27.6113C161.045 24.8568 161.53 24.0897 163.541 20.9342C167.079 15.4252 168.258 13.647 168.414 13.5424C168.708 13.3506 168.951 13.6644 171.049 16.9594C172.159 18.6853 173.494 20.7948 174.031 21.6316C175.834 24.4384 180.377 31.5164 182.094 34.2012C186.55 41.1746 190.884 47.8517 191.422 48.5142C192.306 49.6299 192.462 49.6648 197.022 49.6648C199.709 49.6648 201.409 49.5951 201.842 49.4556C202.588 49.229 203.247 48.4967 203.437 47.7122C203.645 46.7883 203.316 46.1955 198.132 38.2109C197.247 36.8337 195.583 34.2709 194.439 32.4927C193.294 30.7145 191.422 27.8031 190.277 26.0423C187.694 22.0326 184.625 17.2557 182.163 13.4378C181.14 11.8339 180.221 10.4043 180.134 10.2649C180.03 10.1254 179.302 9.00966 178.522 7.78931C177.742 6.56896 176.493 4.61639 175.748 3.46578C174.864 2.08852 174.153 1.18198 173.684 0.850739L172.974 0.327732L168.622 0.345165C166.229 0.345165 164.148 0.397465 164.01 0.449768Z" fill="#3E4FE3"/>
<path d="M164.01 0.449768C163.385 0.676403 162.484 1.82702 160.49 4.91277C157.23 9.96851 154.387 14.3618 152.393 17.465C151.405 19.0165 149.601 21.8059 148.405 23.6364C147.209 25.4844 145.544 28.082 144.695 29.3895C143.845 30.7145 142.077 33.4341 140.776 35.4564C139.476 37.4613 138.037 39.7102 137.569 40.425C137.118 41.1398 136.216 42.517 135.592 43.4759C133.511 46.6662 133.303 47.3287 134.066 48.4619C134.812 49.5776 135.176 49.6648 139.718 49.6648C144.278 49.6648 144.851 49.5602 145.683 48.6362C146.342 47.8866 150.936 40.8085 155.791 33.0157C156.641 31.6733 158.184 29.2326 159.242 27.6113C161.045 24.8568 161.53 24.0897 163.541 20.9342C167.079 15.4252 168.258 13.647 168.414 13.5424C168.708 13.3506 168.951 13.6644 171.049 16.9594C172.159 18.6853 173.494 20.7948 174.031 21.6316C175.834 24.4384 180.377 31.5164 182.094 34.2012C186.55 41.1746 190.884 47.8517 191.422 48.5142C192.306 49.6299 192.462 49.6648 197.022 49.6648C199.709 49.6648 201.409 49.5951 201.842 49.4556C202.588 49.229 203.247 48.4967 203.437 47.7122C203.645 46.7883 203.316 46.1955 198.132 38.2109C197.247 36.8337 195.583 34.2709 194.439 32.4927C193.294 30.7145 191.422 27.8031 190.277 26.0423C187.694 22.0326 184.625 17.2557 182.163 13.4378C181.14 11.8339 180.221 10.4043 180.134 10.2649C180.03 10.1254 179.302 9.00966 178.522 7.78931C177.742 6.56896 176.493 4.61639 175.748 3.46578C174.864 2.08852 174.153 1.18198 173.684 0.850739L172.974 0.327732L168.622 0.345165C166.229 0.345165 164.148 0.397465 164.01 0.449768Z" fill="white" fill-opacity="0.4"/>
<path d="M299.677 0.336468C297.555 0.756168 294.494 2.53989 293.102 4.11377C292.268 5.0581 291.537 6.49208 291.05 7.99601C290.32 10.3044 290.285 10.7241 290.389 25.9032L290.494 41.4672L291.433 43.2509C292.824 45.909 294.007 47.1681 296.198 48.2873C299.642 50.036 300.685 50.071 322.495 49.9661C342.322 49.8612 342.705 49.8612 344.722 49.0917C347.331 48.1124 348.931 46.8533 350.183 44.8248C351.296 43.111 352.34 39.9982 352.027 39.5085C351.922 39.3337 341.07 39.1938 327.504 39.1938C303.642 39.1938 303.19 39.1938 302.494 38.4943C301.833 37.8297 301.798 37.3401 301.798 25.0638C301.798 13.9418 301.868 12.228 302.355 11.7733C302.633 11.4585 302.911 11.1787 302.946 11.1438C302.981 11.0738 313.973 10.9689 327.365 10.864L351.714 10.6891L351.818 9.60486C351.992 7.89108 349.94 4.32362 347.887 2.74975C344.513 0.161591 345.174 0.196568 321.799 0.161591C310.321 0.126617 300.372 0.196568 299.677 0.336468Z" fill="#3E4FE3"/>
<path d="M299.677 0.336468C297.555 0.756168 294.494 2.53989 293.102 4.11377C292.268 5.0581 291.537 6.49208 291.05 7.99601C290.32 10.3044 290.285 10.7241 290.389 25.9032L290.494 41.4672L291.433 43.2509C292.824 45.909 294.007 47.1681 296.198 48.2873C299.642 50.036 300.685 50.071 322.495 49.9661C342.322 49.8612 342.705 49.8612 344.722 49.0917C347.331 48.1124 348.931 46.8533 350.183 44.8248C351.296 43.111 352.34 39.9982 352.027 39.5085C351.922 39.3337 341.07 39.1938 327.504 39.1938C303.642 39.1938 303.19 39.1938 302.494 38.4943C301.833 37.8297 301.798 37.3401 301.798 25.0638C301.798 13.9418 301.868 12.228 302.355 11.7733C302.633 11.4585 302.911 11.1787 302.946 11.1438C302.981 11.0738 313.973 10.9689 327.365 10.864L351.714 10.6891L351.818 9.60486C351.992 7.89108 349.94 4.32362 347.887 2.74975C344.513 0.161591 345.174 0.196568 321.799 0.161591C310.321 0.126617 300.372 0.196568 299.677 0.336468Z" fill="white" fill-opacity="0.4"/>
<path d="M729.365 0.581692C728.357 0.826519 727.07 1.31617 726.478 1.59597C724.843 2.47035 722.722 4.56885 721.956 6.0378C720.461 9.01068 720.252 11.0392 720.252 24.5046C720.252 31.5696 720.426 38.2848 720.6 39.5439C721.33 44.0907 723.87 47.4483 727.87 49.0571L729.818 49.8616H751.21H772.602L774.967 48.9872C777.924 47.9379 780.289 45.5946 781.507 42.5168C782.237 40.5582 782.307 39.8237 782.446 32.5139L782.585 24.6096L781.716 23.5953L780.846 22.581H766.724H752.636L751.836 23.3854C751.106 24.1199 751.036 24.5046 751.036 27.8273C751.036 33.3533 750.41 33.0386 761.854 33.1785L771.106 33.2834L770.967 35.7666C770.863 37.6553 770.689 38.3198 770.167 38.7045C769.646 39.1242 766.341 39.1942 751.627 39.1942C740.253 39.1942 733.54 39.0543 733.122 38.8444C732.739 38.6346 732.287 37.9001 732.079 37.1656C731.696 35.7666 731.661 14.6067 732.044 12.788C732.183 12.1584 732.6 11.5639 733.157 11.319C733.818 11.0043 739.801 10.8644 757.923 10.8644C771.072 10.8294 781.89 10.6895 781.994 10.5146C782.098 10.3747 781.855 9.25551 781.507 8.10133C780.255 4.0792 777.646 1.70089 773.263 0.546719C770.376 -0.187759 732.183 -0.187759 729.365 0.581692Z" fill="#3E4FE3"/>
<path d="M729.365 0.581692C728.357 0.826519 727.07 1.31617 726.478 1.59597C724.843 2.47035 722.722 4.56885 721.956 6.0378C720.461 9.01068 720.252 11.0392 720.252 24.5046C720.252 31.5696 720.426 38.2848 720.6 39.5439C721.33 44.0907 723.87 47.4483 727.87 49.0571L729.818 49.8616H751.21H772.602L774.967 48.9872C777.924 47.9379 780.289 45.5946 781.507 42.5168C782.237 40.5582 782.307 39.8237 782.446 32.5139L782.585 24.6096L781.716 23.5953L780.846 22.581H766.724H752.636L751.836 23.3854C751.106 24.1199 751.036 24.5046 751.036 27.8273C751.036 33.3533 750.41 33.0386 761.854 33.1785L771.106 33.2834L770.967 35.7666C770.863 37.6553 770.689 38.3198 770.167 38.7045C769.646 39.1242 766.341 39.1942 751.627 39.1942C740.253 39.1942 733.54 39.0543 733.122 38.8444C732.739 38.6346 732.287 37.9001 732.079 37.1656C731.696 35.7666 731.661 14.6067 732.044 12.788C732.183 12.1584 732.6 11.5639 733.157 11.319C733.818 11.0043 739.801 10.8644 757.923 10.8644C771.072 10.8294 781.89 10.6895 781.994 10.5146C782.098 10.3747 781.855 9.25551 781.507 8.10133C780.255 4.0792 777.646 1.70089 773.263 0.546719C770.376 -0.187759 732.183 -0.187759 729.365 0.581692Z" fill="white" fill-opacity="0.4"/>
<path d="M361.94 1.03594L361.105 1.70047L361.001 19.3279C360.931 30.415 361.035 37.7948 361.279 39.2987C361.975 43.8105 364.444 47.0631 368.444 48.672L370.497 49.5114L394.324 49.6163C411.994 49.6863 418.36 49.6163 418.916 49.3016C420.134 48.637 420.482 47.238 420.377 43.8105C420.169 38.6691 422.743 39.1938 397.072 39.1938C375.471 39.1938 373.697 39.1238 373.036 38.0396C372.897 37.7948 372.758 29.8904 372.758 20.4471C372.758 2.74972 372.653 1.42067 371.366 0.721165C371.018 0.511314 368.931 0.371414 366.74 0.371414C363.331 0.371414 362.636 0.476341 361.94 1.03594Z" fill="#3E4FE3"/>
<path d="M361.94 1.03594L361.105 1.70047L361.001 19.3279C360.931 30.415 361.035 37.7948 361.279 39.2987C361.975 43.8105 364.444 47.0631 368.444 48.672L370.497 49.5114L394.324 49.6163C411.994 49.6863 418.36 49.6163 418.916 49.3016C420.134 48.637 420.482 47.238 420.377 43.8105C420.169 38.6691 422.743 39.1938 397.072 39.1938C375.471 39.1938 373.697 39.1238 373.036 38.0396C372.897 37.7948 372.758 29.8904 372.758 20.4471C372.758 2.74972 372.653 1.42067 371.366 0.721165C371.018 0.511314 368.931 0.371414 366.74 0.371414C363.331 0.371414 362.636 0.476341 361.94 1.03594Z" fill="white" fill-opacity="0.4"/>
<path d="M426.395 1.07123C425.699 1.73576 425.63 2.15546 425.63 5.54804C425.63 8.38102 425.769 9.50023 426.186 10.0948L426.708 10.8643H453.422C484.659 10.8643 481.702 11.284 481.911 6.8771C482.085 3.58944 481.806 1.94561 480.902 1.03626C480.276 0.406708 479.511 0.371733 453.701 0.371733C427.473 0.371733 427.16 0.371733 426.395 1.07123Z" fill="#3E4FE3"/>
<path d="M426.395 1.07123C425.699 1.73576 425.63 2.15546 425.63 5.54804C425.63 8.38102 425.769 9.50023 426.186 10.0948L426.708 10.8643H453.422C484.659 10.8643 481.702 11.284 481.911 6.8771C482.085 3.58944 481.806 1.94561 480.902 1.03626C480.276 0.406708 479.511 0.371733 453.701 0.371733C427.473 0.371733 427.16 0.371733 426.395 1.07123Z" fill="white" fill-opacity="0.4"/>
<path d="M517.217 0.896294C516.521 1.38594 514.678 4.07903 508.903 13.0676C507.582 15.1311 505.007 19.1533 503.164 21.9863C493.32 37.1654 487.581 46.189 487.407 46.8186C487.094 47.7629 487.824 49.2318 488.728 49.4767C489.111 49.5816 491.372 49.6865 493.703 49.6865C497.877 49.6865 497.981 49.6515 499.025 48.7072C499.929 47.8678 503.616 42.2718 510.225 31.6744C511.408 29.7507 512.521 28.002 512.66 27.8271C513.008 27.4074 513.356 26.8478 518.121 19.3282C520.104 16.2154 521.913 13.6622 522.156 13.6622C522.4 13.6622 524 15.8307 525.669 18.4538C527.339 21.1119 529.983 25.2389 531.548 27.6522C533.113 30.0655 535.235 33.3532 536.244 34.997C540.522 41.8521 545.392 49.022 545.983 49.3368C546.331 49.5116 548.662 49.6865 551.131 49.6865C555.41 49.6865 555.618 49.6515 556.384 48.8471C557.532 47.623 557.253 46.9235 553.705 41.3974C552.036 38.8093 549.705 35.1719 548.488 33.3182C547.305 31.4645 545.044 27.967 543.479 25.5537C540.174 20.4474 539.27 19.0134 533.113 9.46519C530.609 5.513 528.104 1.8756 527.617 1.31599C526.748 0.37167 526.678 0.37167 522.33 0.37167C519.026 0.37167 517.773 0.51157 517.217 0.896294Z" fill="#3E4FE3"/>
<path d="M517.217 0.896294C516.521 1.38594 514.678 4.07903 508.903 13.0676C507.582 15.1311 505.007 19.1533 503.164 21.9863C493.32 37.1654 487.581 46.189 487.407 46.8186C487.094 47.7629 487.824 49.2318 488.728 49.4767C489.111 49.5816 491.372 49.6865 493.703 49.6865C497.877 49.6865 497.981 49.6515 499.025 48.7072C499.929 47.8678 503.616 42.2718 510.225 31.6744C511.408 29.7507 512.521 28.002 512.66 27.8271C513.008 27.4074 513.356 26.8478 518.121 19.3282C520.104 16.2154 521.913 13.6622 522.156 13.6622C522.4 13.6622 524 15.8307 525.669 18.4538C527.339 21.1119 529.983 25.2389 531.548 27.6522C533.113 30.0655 535.235 33.3532 536.244 34.997C540.522 41.8521 545.392 49.022 545.983 49.3368C546.331 49.5116 548.662 49.6865 551.131 49.6865C555.41 49.6865 555.618 49.6515 556.384 48.8471C557.532 47.623 557.253 46.9235 553.705 41.3974C552.036 38.8093 549.705 35.1719 548.488 33.3182C547.305 31.4645 545.044 27.967 543.479 25.5537C540.174 20.4474 539.27 19.0134 533.113 9.46519C530.609 5.513 528.104 1.8756 527.617 1.31599C526.748 0.37167 526.678 0.37167 522.33 0.37167C519.026 0.37167 517.773 0.51157 517.217 0.896294Z" fill="white" fill-opacity="0.4"/>
<path d="M563.028 1.07117C562.332 1.77067 562.332 2.22535 562.332 24.9242C562.367 45.0348 562.436 48.2176 562.889 48.8121C563.341 49.4417 563.897 49.5116 567.654 49.6166C571.515 49.7215 572.002 49.6865 572.767 49.057L573.637 48.3575L573.811 31.6044L573.985 14.8863L576.767 17.5444C578.298 18.9784 582.298 22.7557 585.637 25.9035C592.177 32.0591 607.76 46.7486 608.247 47.2383C608.352 47.3432 609.012 47.9378 609.743 48.5673L611.065 49.6865H615.865C620.213 49.6865 620.769 49.6166 621.604 48.952L622.509 48.2525V25.2389C622.509 2.47017 622.509 2.19037 621.778 1.28102C621.083 0.37167 621.013 0.37167 616.769 0.37167C612.769 0.37167 612.386 0.44162 611.726 1.14112C611.03 1.8756 611.03 2.2953 611.03 18.209C611.03 27.1975 610.926 34.6472 610.821 34.7522C610.682 34.8921 610.334 34.7172 610.021 34.3674C609.708 34.0527 608.525 32.9335 607.378 31.8842C606.23 30.835 603.795 28.5266 601.986 26.8128C600.142 25.0641 597.499 22.5109 596.038 21.1818C594.612 19.8178 589.707 15.2011 585.116 10.8642C580.524 6.52728 576.141 2.40022 575.376 1.66574L573.985 0.37167H568.871C564.176 0.37167 563.654 0.44162 563.028 1.07117Z" fill="#3E4FE3"/>
<path d="M563.028 1.07117C562.332 1.77067 562.332 2.22535 562.332 24.9242C562.367 45.0348 562.436 48.2176 562.889 48.8121C563.341 49.4417 563.897 49.5116 567.654 49.6166C571.515 49.7215 572.002 49.6865 572.767 49.057L573.637 48.3575L573.811 31.6044L573.985 14.8863L576.767 17.5444C578.298 18.9784 582.298 22.7557 585.637 25.9035C592.177 32.0591 607.76 46.7486 608.247 47.2383C608.352 47.3432 609.012 47.9378 609.743 48.5673L611.065 49.6865H615.865C620.213 49.6865 620.769 49.6166 621.604 48.952L622.509 48.2525V25.2389C622.509 2.47017 622.509 2.19037 621.778 1.28102C621.083 0.37167 621.013 0.37167 616.769 0.37167C612.769 0.37167 612.386 0.44162 611.726 1.14112C611.03 1.8756 611.03 2.2953 611.03 18.209C611.03 27.1975 610.926 34.6472 610.821 34.7522C610.682 34.8921 610.334 34.7172 610.021 34.3674C609.708 34.0527 608.525 32.9335 607.378 31.8842C606.23 30.835 603.795 28.5266 601.986 26.8128C600.142 25.0641 597.499 22.5109 596.038 21.1818C594.612 19.8178 589.707 15.2011 585.116 10.8642C580.524 6.52728 576.141 2.40022 575.376 1.66574L573.985 0.37167H568.871C564.176 0.37167 563.654 0.44162 563.028 1.07117Z" fill="white" fill-opacity="0.4"/>
<path d="M631.97 1.17566L631.205 1.98009V24.9237C631.205 52.5191 630.544 49.6861 636.805 49.6861C640.77 49.6861 641.014 49.6511 641.814 48.8117L642.683 47.9723V25.0287V2.08502L641.814 1.24561C641.014 0.406212 640.77 0.371239 636.84 0.371239C632.979 0.371239 632.666 0.406212 631.97 1.17566Z" fill="#3E4FE3"/>
<path d="M631.97 1.17566L631.205 1.98009V24.9237C631.205 52.5191 630.544 49.6861 636.805 49.6861C640.77 49.6861 641.014 49.6511 641.814 48.8117L642.683 47.9723V25.0287V2.08502L641.814 1.24561C641.014 0.406212 640.77 0.371239 636.84 0.371239C632.979 0.371239 632.666 0.406212 631.97 1.17566Z" fill="white" fill-opacity="0.4"/>
<path d="M652.076 1.14111C651.38 1.87559 651.38 2.22534 651.38 24.7143C651.38 40.8378 651.484 47.7979 651.763 48.4274C652.284 49.5466 652.91 49.6865 657.398 49.6865C660.911 49.6865 661.189 49.6515 661.989 48.8121L662.859 47.9727V31.4995C662.859 21.8464 662.998 15.0612 663.172 15.1311C663.346 15.1661 664.633 16.3203 666.059 17.6493C667.45 18.9784 670.859 22.1961 673.642 24.8192C676.39 27.4424 679.938 30.765 681.468 32.234C682.999 33.7029 685.434 35.9763 686.86 37.3053C688.286 38.6344 690.79 40.9777 692.425 42.5516C698.234 48.0777 699.452 49.1619 700.008 49.4067C700.321 49.5466 702.617 49.6515 705.052 49.6515C709.365 49.6865 710.652 49.4417 711.278 48.4974C711.417 48.2875 711.557 37.725 711.557 24.9941V1.87559L710.757 1.14111C710.026 0.441608 709.574 0.371658 705.748 0.371658C701.956 0.371658 701.504 0.441608 700.913 1.10614C700.286 1.80564 700.252 2.74997 700.078 18.4188L699.904 34.997L698.895 34.1226C698.339 33.633 696.634 32.0241 695.069 30.5552C693.504 29.0512 690.895 26.568 689.26 25.0291C687.625 23.4902 684.981 20.972 683.347 19.4331C681.712 17.8942 678.059 14.4316 675.207 11.7386C672.355 9.04548 668.911 5.7928 667.555 4.53369C662.824 0.0219078 663.659 0.371658 657.85 0.371658C653.084 0.371658 652.771 0.406631 652.076 1.14111Z" fill="#3E4FE3"/>
<path d="M652.076 1.14111C651.38 1.87559 651.38 2.22534 651.38 24.7143C651.38 40.8378 651.484 47.7979 651.763 48.4274C652.284 49.5466 652.91 49.6865 657.398 49.6865C660.911 49.6865 661.189 49.6515 661.989 48.8121L662.859 47.9727V31.4995C662.859 21.8464 662.998 15.0612 663.172 15.1311C663.346 15.1661 664.633 16.3203 666.059 17.6493C667.45 18.9784 670.859 22.1961 673.642 24.8192C676.39 27.4424 679.938 30.765 681.468 32.234C682.999 33.7029 685.434 35.9763 686.86 37.3053C688.286 38.6344 690.79 40.9777 692.425 42.5516C698.234 48.0777 699.452 49.1619 700.008 49.4067C700.321 49.5466 702.617 49.6515 705.052 49.6515C709.365 49.6865 710.652 49.4417 711.278 48.4974C711.417 48.2875 711.557 37.725 711.557 24.9941V1.87559L710.757 1.14111C710.026 0.441608 709.574 0.371658 705.748 0.371658C701.956 0.371658 701.504 0.441608 700.913 1.10614C700.286 1.80564 700.252 2.74997 700.078 18.4188L699.904 34.997L698.895 34.1226C698.339 33.633 696.634 32.0241 695.069 30.5552C693.504 29.0512 690.895 26.568 689.26 25.0291C687.625 23.4902 684.981 20.972 683.347 19.4331C681.712 17.8942 678.059 14.4316 675.207 11.7386C672.355 9.04548 668.911 5.7928 667.555 4.53369C662.824 0.0219078 663.659 0.371658 657.85 0.371658C653.084 0.371658 652.771 0.406631 652.076 1.14111Z" fill="white" fill-opacity="0.4"/>
<path d="M426.499 20.4824C425.665 21.2868 425.63 21.5666 425.63 25.1341C425.63 28.5616 425.699 29.0163 426.36 29.6109C427.056 30.2404 428.03 30.2754 453.318 30.2754H479.511L480.311 29.5059C481.737 28.072 481.632 21.6715 480.137 20.3075C479.441 19.608 478.85 19.608 453.388 19.608H427.334L426.499 20.4824Z" fill="#3E4FE3"/>
<path d="M426.499 20.4824C425.665 21.2868 425.63 21.5666 425.63 25.1341C425.63 28.5616 425.699 29.0163 426.36 29.6109C427.056 30.2404 428.03 30.2754 453.318 30.2754H479.511L480.311 29.5059C481.737 28.072 481.632 21.6715 480.137 20.3075C479.441 19.608 478.85 19.608 453.388 19.608H427.334L426.499 20.4824Z" fill="white" fill-opacity="0.4"/>
<path d="M426.186 39.9635C425.769 40.558 425.63 41.6772 425.63 44.4403C425.63 47.2033 425.769 48.3225 426.186 48.9171L426.708 49.6865H453.492C470.293 49.6865 480.519 49.5466 480.937 49.3368C481.876 48.8471 482.328 47.0984 482.328 44.1255C482.328 42.0969 482.154 41.1876 481.632 40.3132L480.937 39.194H453.84H426.708L426.186 39.9635Z" fill="#3E4FE3"/>
<path d="M426.186 39.9635C425.769 40.558 425.63 41.6772 425.63 44.4403C425.63 47.2033 425.769 48.3225 426.186 48.9171L426.708 49.6865H453.492C470.293 49.6865 480.519 49.5466 480.937 49.3368C481.876 48.8471 482.328 47.0984 482.328 44.1255C482.328 42.0969 482.154 41.1876 481.632 40.3132L480.937 39.194H453.84H426.708L426.186 39.9635Z" fill="white" fill-opacity="0.4"/>
</svg>
