<svg width="442" height="114" viewBox="0 0 442 114" fill="none" xmlns="http://www.w3.org/2000/svg">
<path d="M54.0296 0.0983429C35.1932 1.00272 18.0037 11.3003 8.12238 27.6203C3.96396 34.4854 1.226 42.5015 0.279037 50.6409C-0.317963 55.5533 0.073175 63.3022 1.16424 68.6258C4.23159 83.7125 13.5777 97.1138 26.7529 105.356C28.9762 106.754 33.6698 109.097 36.2225 110.104C47.6273 114.605 60.7613 115.222 72.5572 111.872C76.7979 110.659 82.4385 108.439 82.4385 107.966C82.4385 107.884 81.9445 107.864 81.3475 107.925C79.8447 108.069 74.2246 107.637 71.1573 107.144C66.9989 106.466 62.8199 105.171 59.7114 103.629C59.0526 103.301 58.5585 102.992 58.5997 102.951C58.6409 102.889 59.3202 103.033 60.1231 103.259C66.9371 105.15 78.3625 105.335 86.9675 103.671C88.038 103.465 89.3143 103.239 89.7878 103.157C91.2906 102.91 93.0404 101.533 97.3635 97.2165C100.513 94.0717 101.872 92.4891 101.234 92.7152C101.028 92.7768 100.76 92.9207 100.637 93.0235C100.513 93.1057 99.2163 93.7018 97.7547 94.339C91.7229 96.9288 85.5265 98.5731 78.3213 99.4775C74.5128 99.9502 65.9078 99.7858 61.8523 99.1692C50.3035 97.4015 40.0516 93.2701 31.8994 87.1245C29.4291 85.254 27.2675 83.3631 27.2675 83.0959C27.2675 82.9931 28.1733 83.5275 29.285 84.288C34.6991 87.9672 42.3572 90.5981 49.8094 91.3586C53.1444 91.6875 59.9172 91.4819 63.2934 90.9475C71.569 89.6321 76.695 88.0288 86.6587 83.6303C89.1496 82.5409 92.2993 81.1843 93.658 80.6088C95.0167 80.0538 96.4989 79.4167 96.9518 79.2317C98.3928 78.5739 105.495 75.9019 108.459 74.8742C110.024 74.3398 111.403 73.8054 111.506 73.7026C111.897 73.3121 112.927 68.9957 113.462 65.5426C113.935 62.5006 114.018 61.4318 113.997 57.321C113.997 50.9698 113.421 46.674 111.774 41.001C109.406 32.7999 104.857 24.6605 99.2163 18.597C94.1109 13.0885 88.9026 9.1627 82.5415 5.97682C79.577 4.49693 78.3213 3.98307 75.0069 2.87315C70.2515 1.29048 65.4755 0.344994 61.2347 0.160004C59.9378 0.118896 58.4556 0.0366821 57.941 0.0161285C57.4263 -0.0249786 55.6765 0.0161285 54.0296 0.0983429ZM57.1175 12.2047C61.9964 12.5336 65.6402 13.4174 70.0868 15.3495C72.1043 16.2333 75.1304 17.9393 74.9657 18.1037C74.904 18.1449 74.2246 18.001 73.4424 17.7749C70.0662 16.7677 65.002 16.1717 61.9553 16.3978C53.0003 17.1171 45.898 20.303 39.8251 26.3871C34.6168 31.5667 31.6318 37.2807 30.2114 44.783C29.7173 47.455 29.7585 53.0252 30.3143 56.1905C31.7553 64.2272 35.9343 71.4211 42.1925 76.5596C50.7564 83.6303 61.9553 86.0351 72.8248 83.1575C74.0394 82.8286 75.0275 82.6231 75.0275 82.7053C75.0275 82.7875 74.3482 83.2192 73.5453 83.6919C67.4724 87.145 60.4525 88.8716 53.5149 88.6044C44.704 88.2549 37.0871 85.4185 30.4584 80.0333C27.3911 77.5257 23.8708 73.4765 21.8945 70.1673C20.9064 68.523 19.4036 65.481 19.136 64.6177C19.0536 64.3299 18.9095 64.0011 18.8272 63.8983C18.6007 63.6106 17.7155 60.5274 17.2009 58.3487C16.5833 55.5945 16.2745 51.9769 16.4186 48.6883C16.8921 37.6918 21.7093 28.1136 30.5407 20.5497C31.5495 19.6864 35.1726 17.3227 36.8195 16.4389C40.9985 14.1985 46.6803 12.5541 51.5387 12.2253C52.7326 12.1225 53.8237 12.0403 53.9266 12.0403C54.0502 12.0197 55.4706 12.1019 57.1175 12.2047ZM68.7487 21.5568C73.0718 22.4612 77.5596 24.5166 80.771 27.0859C82.0474 28.093 85.3 31.5461 86.247 32.8616C87.6468 34.8554 89.3143 38.2057 90.0348 40.4461C90.9612 43.3236 91.3318 45.8312 91.3523 49.2021C91.3523 52.5319 91.0436 54.6284 90.0142 57.8349C89.1496 60.548 86.9675 64.8232 86.9675 63.8161C86.9675 63.7133 87.0704 63.3639 87.1939 63.035C87.3175 62.7267 87.6057 61.4935 87.8321 60.3013C88.4085 57.3621 88.2644 52.9224 87.5233 50.0037C85.5059 42.2548 80.8534 36.6025 73.6482 33.2316C63.0463 28.278 50.3241 31.5667 43.1601 41.0832C41.0191 43.9403 39.3516 47.8661 38.6929 51.5453C38.1165 54.8956 38.3841 59.4175 39.331 62.7267C39.5163 63.3434 39.6192 63.8778 39.5575 63.9394C39.4134 64.0833 38.5488 62.5828 37.5812 60.4658C35.9137 56.8894 34.8638 50.9287 35.1932 47.0439C35.6667 41.371 37.7665 35.9653 41.1632 31.7517C42.6866 29.8196 45.651 27.0653 47.3391 25.9349C51.024 23.5095 55.4089 21.824 59.5055 21.2691C61.523 20.9813 66.793 21.1458 68.7487 21.5568Z" fill="url(#paint0_linear_141_1302)"/>
<path d="M163.247 6.2207C160.206 6.59303 156.569 8.10302 154.926 9.65438C153.179 11.3092 151.762 13.7913 150.981 16.5217C150.632 17.7628 150.59 19.066 150.529 34.8692C150.467 51.0654 150.488 51.9549 150.878 53.8579C151.823 58.4913 154.412 61.9043 158.275 63.6004C162.343 65.3586 162.569 65.3793 189.011 65.2966C209.577 65.2138 211.529 65.1725 212.926 64.8415C217.117 63.8486 219.829 61.9663 221.822 58.6774C222.623 57.3743 223.527 54.8921 223.753 53.3821L223.897 52.5134H195.873C177.423 52.5134 167.541 52.4306 166.924 52.2858C165.733 52.0169 164.746 51.3343 164.418 50.5483C164.068 49.7002 163.904 22.934 164.253 21.362C164.479 20.245 164.931 19.6865 166.041 19.128C166.637 18.8384 169.349 18.7971 195.154 18.7971C211.673 18.7971 223.651 18.7143 223.712 18.6109C223.774 18.5075 223.61 17.5353 223.343 16.439C221.802 10.3784 217.795 7.0481 211.015 6.17933C208.919 5.91043 165.383 5.9518 163.247 6.2207Z" fill="#3E4FE3"/>
<path d="M163.247 6.2207C160.206 6.59303 156.569 8.10302 154.926 9.65438C153.179 11.3092 151.762 13.7913 150.981 16.5217C150.632 17.7628 150.59 19.066 150.529 34.8692C150.467 51.0654 150.488 51.9549 150.878 53.8579C151.823 58.4913 154.412 61.9043 158.275 63.6004C162.343 65.3586 162.569 65.3793 189.011 65.2966C209.577 65.2138 211.529 65.1725 212.926 64.8415C217.117 63.8486 219.829 61.9663 221.822 58.6774C222.623 57.3743 223.527 54.8921 223.753 53.3821L223.897 52.5134H195.873C177.423 52.5134 167.541 52.4306 166.924 52.2858C165.733 52.0169 164.746 51.3343 164.418 50.5483C164.068 49.7002 163.904 22.934 164.253 21.362C164.479 20.245 164.931 19.6865 166.041 19.128C166.637 18.8384 169.349 18.7971 195.154 18.7971C211.673 18.7971 223.651 18.7143 223.712 18.6109C223.774 18.5075 223.61 17.5353 223.343 16.439C221.802 10.3784 217.795 7.0481 211.015 6.17933C208.919 5.91043 165.383 5.9518 163.247 6.2207Z" fill="white" fill-opacity="0.4"/>
<path d="M237.396 6.38626C235.773 6.51037 234.91 7.04818 234.437 8.24789C234.149 8.99255 234.108 11.1851 234.108 29.4085C234.108 53.3822 234.129 53.6925 235.999 57.4778C238.012 61.5113 241.916 64.0762 246.949 64.6968C248.203 64.8416 257.346 64.9243 275.302 64.9243C300.697 64.9243 301.847 64.9036 302.649 64.5313C303.142 64.3038 303.676 63.8487 303.922 63.435C304.354 62.7524 304.374 62.4421 304.374 58.6154C304.374 54.7681 304.354 54.4785 303.922 53.7131C302.998 52.079 305.32 52.2238 275.98 52.0997C249.785 51.9963 249.744 51.9963 249.168 51.5619C247.915 50.6311 247.977 51.8722 247.874 29.0361C247.792 12.964 247.71 8.04105 247.525 7.6894C247.381 7.46187 246.949 7.04818 246.539 6.79996C245.902 6.40694 245.511 6.36558 242.286 6.32421C240.334 6.30352 238.135 6.32421 237.396 6.38626Z" fill="#3E4FE3"/>
<path d="M237.396 6.38626C235.773 6.51037 234.91 7.04818 234.437 8.24789C234.149 8.99255 234.108 11.1851 234.108 29.4085C234.108 53.3822 234.129 53.6925 235.999 57.4778C238.012 61.5113 241.916 64.0762 246.949 64.6968C248.203 64.8416 257.346 64.9243 275.302 64.9243C300.697 64.9243 301.847 64.9036 302.649 64.5313C303.142 64.3038 303.676 63.8487 303.922 63.435C304.354 62.7524 304.374 62.4421 304.374 58.6154C304.374 54.7681 304.354 54.4785 303.922 53.7131C302.998 52.079 305.32 52.2238 275.98 52.0997C249.785 51.9963 249.744 51.9963 249.168 51.5619C247.915 50.6311 247.977 51.8722 247.874 29.0361C247.792 12.964 247.71 8.04105 247.525 7.6894C247.381 7.46187 246.949 7.04818 246.539 6.79996C245.902 6.40694 245.511 6.36558 242.286 6.32421C240.334 6.30352 238.135 6.32421 237.396 6.38626Z" fill="white" fill-opacity="0.4"/>
<path d="M374.599 6.38625C374.188 6.4483 373.613 6.67583 373.325 6.862C372.278 7.56528 372.195 7.99966 372.175 13.2329C372.154 15.9013 372.154 18.28 372.154 18.5282L372.175 19.004L398.843 19.0454C428.655 19.1074 426.148 18.9833 426.95 20.5967C427.319 21.3207 427.34 21.9206 427.34 28.2087C427.34 35.8208 427.299 36.0483 426.025 36.8343L425.285 37.3101L409.013 37.3721C395.597 37.4135 392.72 37.4755 392.72 37.7031C392.72 37.8479 393.214 38.427 393.809 38.9442C394.385 39.482 397.425 42.4192 400.528 45.4599C403.63 48.5006 406.466 51.2516 406.794 51.5619C407.144 51.8722 409.136 53.8166 411.232 55.885C413.328 57.9535 416.245 60.8287 417.745 62.2767L420.457 64.9243H430.114C438.188 64.9243 439.77 64.8829 439.77 64.6347C439.77 64.4899 439.339 63.9521 438.804 63.4764C438.27 63.0006 435.805 60.6426 433.319 58.2224C430.833 55.823 427.977 53.0719 426.991 52.1204C425.552 50.7345 425.224 50.3208 425.429 50.1347C425.573 50.0106 426.682 49.7417 427.895 49.5555C435.907 48.3144 439.873 44.7359 440.9 37.8479C441.352 34.9313 441.331 20.9691 440.9 18.5696C439.955 13.4811 437.818 10.2543 434.12 8.30993C431.141 6.75857 430.155 6.57241 423.744 6.36556C417.108 6.15871 375.709 6.1794 374.599 6.38625Z" fill="#3E4FE3"/>
<path d="M374.599 6.38625C374.188 6.4483 373.613 6.67583 373.325 6.862C372.278 7.56528 372.195 7.99966 372.175 13.2329C372.154 15.9013 372.154 18.28 372.154 18.5282L372.175 19.004L398.843 19.0454C428.655 19.1074 426.148 18.9833 426.95 20.5967C427.319 21.3207 427.34 21.9206 427.34 28.2087C427.34 35.8208 427.299 36.0483 426.025 36.8343L425.285 37.3101L409.013 37.3721C395.597 37.4135 392.72 37.4755 392.72 37.7031C392.72 37.8479 393.214 38.427 393.809 38.9442C394.385 39.482 397.425 42.4192 400.528 45.4599C403.63 48.5006 406.466 51.2516 406.794 51.5619C407.144 51.8722 409.136 53.8166 411.232 55.885C413.328 57.9535 416.245 60.8287 417.745 62.2767L420.457 64.9243H430.114C438.188 64.9243 439.77 64.8829 439.77 64.6347C439.77 64.4899 439.339 63.9521 438.804 63.4764C438.27 63.0006 435.805 60.6426 433.319 58.2224C430.833 55.823 427.977 53.0719 426.991 52.1204C425.552 50.7345 425.224 50.3208 425.429 50.1347C425.573 50.0106 426.682 49.7417 427.895 49.5555C435.907 48.3144 439.873 44.7359 440.9 37.8479C441.352 34.9313 441.331 20.9691 440.9 18.5696C439.955 13.4811 437.818 10.2543 434.12 8.30993C431.141 6.75857 430.155 6.57241 423.744 6.36556C417.108 6.15871 375.709 6.1794 374.599 6.38625Z" fill="white" fill-opacity="0.4"/>
<path d="M344.849 6.53105C344.11 6.79995 343.041 8.16515 340.678 11.8264C336.816 17.825 333.446 23.0375 331.084 26.7194C329.912 28.5604 327.776 31.87 326.358 34.0419C324.94 36.2345 322.968 39.3165 321.961 40.8679C320.955 42.4399 318.859 45.6667 317.318 48.0662C315.777 50.4449 314.072 53.1133 313.517 53.9614C312.983 54.8094 311.914 56.4435 311.175 57.5812C308.709 61.3665 308.463 62.1525 309.367 63.4971C310.25 64.8209 310.682 64.9243 316.065 64.9243C321.468 64.9243 322.146 64.8002 323.132 63.7039C323.913 62.8145 329.358 54.4164 335.111 45.1703C336.117 43.5776 337.946 40.6817 339.199 38.758C341.336 35.4898 341.911 34.5797 344.294 30.8357C348.486 24.2993 349.883 22.1895 350.068 22.0654C350.417 21.8378 350.705 22.2101 353.191 26.1196C354.506 28.1674 356.088 30.6702 356.725 31.6631C358.861 34.9934 364.244 43.3914 366.278 46.5769C371.558 54.8508 376.695 62.7731 377.332 63.5591C378.38 64.8829 378.565 64.9243 383.968 64.9243C387.153 64.9243 389.166 64.8416 389.68 64.6761C390.563 64.4072 391.344 63.5384 391.57 62.6076C391.816 61.5113 391.426 60.808 385.283 51.3344C384.235 49.7003 382.263 46.6596 380.907 44.5498C379.551 42.4399 377.332 38.9855 375.976 36.8964C372.914 32.1389 369.278 26.4712 366.36 21.9412C365.148 20.0382 364.059 18.3421 363.957 18.1766C363.833 18.0111 362.97 16.6873 362.046 15.2394C361.121 13.7914 359.642 11.4747 358.759 10.1095C357.711 8.47542 356.868 7.39981 356.314 7.0068L355.471 6.38626L350.314 6.40694C347.479 6.40694 345.014 6.46899 344.849 6.53105Z" fill="#3E4FE3"/>
<path d="M344.849 6.53105C344.11 6.79995 343.041 8.16515 340.678 11.8264C336.816 17.825 333.446 23.0375 331.084 26.7194C329.912 28.5604 327.776 31.87 326.358 34.0419C324.94 36.2345 322.968 39.3165 321.961 40.8679C320.955 42.4399 318.859 45.6667 317.318 48.0662C315.777 50.4449 314.072 53.1133 313.517 53.9614C312.983 54.8094 311.914 56.4435 311.175 57.5812C308.709 61.3665 308.463 62.1525 309.367 63.4971C310.25 64.8209 310.682 64.9243 316.065 64.9243C321.468 64.9243 322.146 64.8002 323.132 63.7039C323.913 62.8145 329.358 54.4164 335.111 45.1703C336.117 43.5776 337.946 40.6817 339.199 38.758C341.336 35.4898 341.911 34.5797 344.294 30.8357C348.486 24.2993 349.883 22.1895 350.068 22.0654C350.417 21.8378 350.705 22.2101 353.191 26.1196C354.506 28.1674 356.088 30.6702 356.725 31.6631C358.861 34.9934 364.244 43.3914 366.278 46.5769C371.558 54.8508 376.695 62.7731 377.332 63.5591C378.38 64.8829 378.565 64.9243 383.968 64.9243C387.153 64.9243 389.166 64.8416 389.68 64.6761C390.563 64.4072 391.344 63.5384 391.57 62.6076C391.816 61.5113 391.426 60.808 385.283 51.3344C384.235 49.7003 382.263 46.6596 380.907 44.5498C379.551 42.4399 377.332 38.9855 375.976 36.8964C372.914 32.1389 369.278 26.4712 366.36 21.9412C365.148 20.0382 364.059 18.3421 363.957 18.1766C363.833 18.0111 362.97 16.6873 362.046 15.2394C361.121 13.7914 359.642 11.4747 358.759 10.1095C357.711 8.47542 356.868 7.39981 356.314 7.0068L355.471 6.38626L350.314 6.40694C347.479 6.40694 345.014 6.46899 344.849 6.53105Z" fill="white" fill-opacity="0.4"/>
<path d="M156.014 77.9348C154.761 78.183 152.953 79.238 152.131 80.1688C151.638 80.7273 151.207 81.5753 150.919 82.4648C150.488 83.83 150.467 84.0782 150.529 93.0554L150.59 102.26L151.145 103.315C151.967 104.887 152.665 105.632 153.96 106.294C155.994 107.328 156.61 107.349 169.492 107.287C181.203 107.225 181.429 107.225 182.621 106.769C184.162 106.19 185.107 105.446 185.847 104.246C186.504 103.232 187.12 101.391 186.935 101.102C186.874 100.998 180.464 100.916 172.451 100.916C158.356 100.916 158.089 100.916 157.678 100.502C157.288 100.109 157.268 99.8194 157.268 92.559C157.268 85.9812 157.309 84.9677 157.596 84.6988C157.761 84.5126 157.925 84.3471 157.946 84.3264C157.966 84.2851 164.459 84.223 172.369 84.161L186.751 84.0575L186.812 83.4163C186.915 82.4027 185.703 80.2929 184.491 79.3621C182.498 77.8314 182.888 77.8521 169.081 77.8314C162.301 77.8107 156.425 77.8521 156.014 77.9348Z" fill="#3E4FE3"/>
<path d="M156.014 77.9348C154.761 78.183 152.953 79.238 152.131 80.1688C151.638 80.7273 151.207 81.5753 150.919 82.4648C150.488 83.83 150.467 84.0782 150.529 93.0554L150.59 102.26L151.145 103.315C151.967 104.887 152.665 105.632 153.96 106.294C155.994 107.328 156.61 107.349 169.492 107.287C181.203 107.225 181.429 107.225 182.621 106.769C184.162 106.19 185.107 105.446 185.847 104.246C186.504 103.232 187.12 101.391 186.935 101.102C186.874 100.998 180.464 100.916 172.451 100.916C158.356 100.916 158.089 100.916 157.678 100.502C157.288 100.109 157.268 99.8194 157.268 92.559C157.268 85.9812 157.309 84.9677 157.596 84.6988C157.761 84.5126 157.925 84.3471 157.946 84.3264C157.966 84.2851 164.459 84.223 172.369 84.161L186.751 84.0575L186.812 83.4163C186.915 82.4027 185.703 80.2929 184.491 79.3621C182.498 77.8314 182.888 77.8521 169.081 77.8314C162.301 77.8107 156.425 77.8521 156.014 77.9348Z" fill="white" fill-opacity="0.4"/>
<path d="M409.815 78.0797C409.219 78.2245 408.459 78.5141 408.109 78.6795C407.144 79.1967 405.89 80.4378 405.438 81.3065C404.555 83.0647 404.432 84.2645 404.432 92.2281C404.432 96.4064 404.534 100.378 404.637 101.123C405.069 103.812 406.568 105.797 408.931 106.749L410.082 107.225H422.717H435.353L436.75 106.707C438.496 106.087 439.893 104.701 440.613 102.881C441.044 101.722 441.085 101.288 441.167 96.9649L441.249 92.2902L440.736 91.6903L440.222 91.0904H431.881H423.56L423.087 91.5662C422.656 92.0006 422.615 92.2281 422.615 94.1932C422.615 97.4614 422.245 97.2752 429.004 97.3579L434.469 97.42L434.387 98.8886C434.326 100.006 434.223 100.399 433.915 100.626C433.606 100.874 431.655 100.916 422.964 100.916C416.245 100.916 412.28 100.833 412.034 100.709C411.808 100.585 411.54 100.15 411.417 99.716C411.191 98.8886 411.171 86.3743 411.397 85.2987C411.479 84.9264 411.725 84.5747 412.054 84.4299C412.444 84.2438 415.978 84.161 426.683 84.161C434.449 84.1403 440.839 84.0576 440.9 83.9542C440.962 83.8714 440.818 83.2095 440.613 82.5269C439.873 80.1482 438.332 78.7416 435.743 78.059C434.038 77.6246 411.479 77.6246 409.815 78.0797Z" fill="#3E4FE3"/>
<path d="M409.815 78.0797C409.219 78.2245 408.459 78.5141 408.109 78.6795C407.144 79.1967 405.89 80.4378 405.438 81.3065C404.555 83.0647 404.432 84.2645 404.432 92.2281C404.432 96.4064 404.534 100.378 404.637 101.123C405.069 103.812 406.568 105.797 408.931 106.749L410.082 107.225H422.717H435.353L436.75 106.707C438.496 106.087 439.893 104.701 440.613 102.881C441.044 101.722 441.085 101.288 441.167 96.9649L441.249 92.2902L440.736 91.6903L440.222 91.0904H431.881H423.56L423.087 91.5662C422.656 92.0006 422.615 92.2281 422.615 94.1932C422.615 97.4614 422.245 97.2752 429.004 97.3579L434.469 97.42L434.387 98.8886C434.326 100.006 434.223 100.399 433.915 100.626C433.606 100.874 431.655 100.916 422.964 100.916C416.245 100.916 412.28 100.833 412.034 100.709C411.808 100.585 411.54 100.15 411.417 99.716C411.191 98.8886 411.171 86.3743 411.397 85.2987C411.479 84.9264 411.725 84.5747 412.054 84.4299C412.444 84.2438 415.978 84.161 426.683 84.161C434.449 84.1403 440.839 84.0576 440.9 83.9542C440.962 83.8714 440.818 83.2095 440.613 82.5269C439.873 80.1482 438.332 78.7416 435.743 78.059C434.038 77.6246 411.479 77.6246 409.815 78.0797Z" fill="white" fill-opacity="0.4"/>
<path d="M192.791 78.3488L192.298 78.7418L192.236 89.167C192.195 95.7241 192.257 100.089 192.4 100.978C192.811 103.646 194.27 105.57 196.633 106.522L197.845 107.018L211.919 107.08C222.356 107.121 226.116 107.08 226.445 106.894C227.164 106.501 227.369 105.673 227.308 103.646C227.184 100.606 228.705 100.916 213.542 100.916C200.783 100.916 199.735 100.875 199.345 100.233C199.263 100.089 199.181 95.4138 199.181 89.8289C199.181 79.3624 199.119 78.5764 198.359 78.1627C198.153 78.0386 196.921 77.9558 195.626 77.9558C193.613 77.9558 193.202 78.0179 192.791 78.3488Z" fill="#3E4FE3"/>
<path d="M192.791 78.3488L192.298 78.7418L192.236 89.167C192.195 95.7241 192.257 100.089 192.4 100.978C192.811 103.646 194.27 105.57 196.633 106.522L197.845 107.018L211.919 107.08C222.356 107.121 226.116 107.08 226.445 106.894C227.164 106.501 227.369 105.673 227.308 103.646C227.184 100.606 228.705 100.916 213.542 100.916C200.783 100.916 199.735 100.875 199.345 100.233C199.263 100.089 199.181 95.4138 199.181 89.8289C199.181 79.3624 199.119 78.5764 198.359 78.1627C198.153 78.0386 196.921 77.9558 195.626 77.9558C193.613 77.9558 193.202 78.0179 192.791 78.3488Z" fill="white" fill-opacity="0.4"/>
<path d="M230.862 78.3694C230.451 78.7624 230.41 79.0106 230.41 81.017C230.41 82.6925 230.492 83.3544 230.739 83.7061L231.047 84.1611H246.826C265.276 84.1611 263.53 84.4093 263.653 81.8031C263.756 79.8587 263.591 78.8865 263.057 78.3487C262.687 77.9764 262.235 77.9557 246.99 77.9557C231.499 77.9557 231.314 77.9557 230.862 78.3694Z" fill="#3E4FE3"/>
<path d="M230.862 78.3694C230.451 78.7624 230.41 79.0106 230.41 81.017C230.41 82.6925 230.492 83.3544 230.739 83.7061L231.047 84.1611H246.826C265.276 84.1611 263.53 84.4093 263.653 81.8031C263.756 79.8587 263.591 78.8865 263.057 78.3487C262.687 77.9764 262.235 77.9557 246.99 77.9557C231.499 77.9557 231.314 77.9557 230.862 78.3694Z" fill="white" fill-opacity="0.4"/>
<path d="M284.507 78.2658C284.096 78.5553 283.007 80.1481 279.596 85.4641C278.815 86.6845 277.295 89.0632 276.206 90.7387C270.392 99.7159 267.002 105.053 266.899 105.425C266.714 105.983 267.146 106.852 267.68 106.997C267.906 107.059 269.241 107.121 270.618 107.121C273.083 107.121 273.145 107.1 273.761 106.542C274.295 106.045 276.473 102.736 280.377 96.4684C281.075 95.3307 281.733 94.2965 281.815 94.1931C282.021 93.9449 282.226 93.6139 285.041 89.1667C286.212 87.3257 287.28 85.8157 287.424 85.8157C287.568 85.8157 288.513 87.0982 289.499 88.6495C290.485 90.2216 292.047 92.6624 292.971 94.0897C293.896 95.5169 295.149 97.4613 295.745 98.4335C298.272 102.488 301.149 106.728 301.498 106.914C301.703 107.018 303.08 107.121 304.539 107.121C307.066 107.121 307.189 107.1 307.641 106.625C308.319 105.901 308.155 105.487 306.059 102.219C305.073 100.688 303.696 98.5369 302.977 97.4406C302.279 96.3443 300.943 94.2758 300.019 92.8486C298.067 89.8286 297.533 88.9805 293.896 83.3335C292.417 80.9962 290.937 78.8449 290.65 78.514C290.136 77.9555 290.095 77.9555 287.527 77.9555C285.575 77.9555 284.835 78.0382 284.507 78.2658Z" fill="#3E4FE3"/>
<path d="M284.507 78.2658C284.096 78.5553 283.007 80.1481 279.596 85.4641C278.815 86.6845 277.295 89.0632 276.206 90.7387C270.392 99.7159 267.002 105.053 266.899 105.425C266.714 105.983 267.146 106.852 267.68 106.997C267.906 107.059 269.241 107.121 270.618 107.121C273.083 107.121 273.145 107.1 273.761 106.542C274.295 106.045 276.473 102.736 280.377 96.4684C281.075 95.3307 281.733 94.2965 281.815 94.1931C282.021 93.9449 282.226 93.6139 285.041 89.1667C286.212 87.3257 287.28 85.8157 287.424 85.8157C287.568 85.8157 288.513 87.0982 289.499 88.6495C290.485 90.2216 292.047 92.6624 292.971 94.0897C293.896 95.5169 295.149 97.4613 295.745 98.4335C298.272 102.488 301.149 106.728 301.498 106.914C301.703 107.018 303.08 107.121 304.539 107.121C307.066 107.121 307.189 107.1 307.641 106.625C308.319 105.901 308.155 105.487 306.059 102.219C305.073 100.688 303.696 98.5369 302.977 97.4406C302.279 96.3443 300.943 94.2758 300.019 92.8486C298.067 89.8286 297.533 88.9805 293.896 83.3335C292.417 80.9962 290.937 78.8449 290.65 78.514C290.136 77.9555 290.095 77.9555 287.527 77.9555C285.575 77.9555 284.835 78.0382 284.507 78.2658Z" fill="white" fill-opacity="0.4"/>
<path d="M311.565 78.3692C311.154 78.7829 311.154 79.0518 311.154 92.4762C311.175 104.37 311.216 106.252 311.483 106.604C311.75 106.976 312.079 107.018 314.298 107.08C316.578 107.142 316.866 107.121 317.318 106.749L317.832 106.335L317.934 96.427L318.037 86.5397L319.681 88.1117C320.585 88.9598 322.947 91.1938 324.92 93.0554C328.782 96.6959 337.987 105.384 338.275 105.673C338.336 105.735 338.727 106.087 339.158 106.459L339.939 107.121H342.774C345.342 107.121 345.671 107.08 346.164 106.687L346.698 106.273V92.6624C346.698 79.1966 346.698 79.0311 346.267 78.4933C345.856 77.9555 345.815 77.9555 343.308 77.9555C340.945 77.9555 340.719 77.9969 340.329 78.4106C339.918 78.8449 339.918 79.0932 339.918 88.5048C339.918 93.8208 339.857 98.2266 339.795 98.2887C339.713 98.3714 339.507 98.268 339.322 98.0611C339.137 97.875 338.439 97.2131 337.761 96.5925C337.083 95.972 335.645 94.6068 334.576 93.5932C333.487 92.559 331.926 91.049 331.063 90.263C330.221 89.4563 327.324 86.7259 324.612 84.1609C321.9 81.596 319.311 79.1552 318.859 78.7208L318.037 77.9555H315.017C312.243 77.9555 311.935 77.9969 311.565 78.3692Z" fill="#3E4FE3"/>
<path d="M311.565 78.3692C311.154 78.7829 311.154 79.0518 311.154 92.4762C311.175 104.37 311.216 106.252 311.483 106.604C311.75 106.976 312.079 107.018 314.298 107.08C316.578 107.142 316.866 107.121 317.318 106.749L317.832 106.335L317.934 96.427L318.037 86.5397L319.681 88.1117C320.585 88.9598 322.947 91.1938 324.92 93.0554C328.782 96.6959 337.987 105.384 338.275 105.673C338.336 105.735 338.727 106.087 339.158 106.459L339.939 107.121H342.774C345.342 107.121 345.671 107.08 346.164 106.687L346.698 106.273V92.6624C346.698 79.1966 346.698 79.0311 346.267 78.4933C345.856 77.9555 345.815 77.9555 343.308 77.9555C340.945 77.9555 340.719 77.9969 340.329 78.4106C339.918 78.8449 339.918 79.0932 339.918 88.5048C339.918 93.8208 339.857 98.2266 339.795 98.2887C339.713 98.3714 339.507 98.268 339.322 98.0611C339.137 97.875 338.439 97.2131 337.761 96.5925C337.083 95.972 335.645 94.6068 334.576 93.5932C333.487 92.559 331.926 91.049 331.063 90.263C330.221 89.4563 327.324 86.7259 324.612 84.1609C321.9 81.596 319.311 79.1552 318.859 78.7208L318.037 77.9555H315.017C312.243 77.9555 311.935 77.9969 311.565 78.3692Z" fill="white" fill-opacity="0.4"/>
<path d="M352.287 78.4314L351.835 78.9072V92.4764C351.835 108.797 351.445 107.121 355.143 107.121C357.485 107.121 357.629 107.101 358.102 106.604L358.615 106.108V92.5385V78.9693L358.102 78.4728C357.629 77.9764 357.485 77.9557 355.163 77.9557C352.883 77.9557 352.698 77.9764 352.287 78.4314Z" fill="#3E4FE3"/>
<path d="M352.287 78.4314L351.835 78.9072V92.4764C351.835 108.797 351.445 107.121 355.143 107.121C357.485 107.121 357.629 107.101 358.102 106.604L358.615 106.108V92.5385V78.9693L358.102 78.4728C357.629 77.9764 357.485 77.9557 355.163 77.9557C352.883 77.9557 352.698 77.9764 352.287 78.4314Z" fill="white" fill-opacity="0.4"/>
<path d="M364.162 78.4105C363.751 78.8449 363.751 79.0518 363.751 92.3521C363.751 101.888 363.813 106.004 363.977 106.376C364.285 107.038 364.655 107.121 367.305 107.121C369.38 107.121 369.545 107.1 370.017 106.604L370.531 106.108V96.365C370.531 90.656 370.613 86.6431 370.716 86.6845C370.819 86.7052 371.579 87.3878 372.421 88.1738C373.243 88.9598 375.257 90.8628 376.9 92.4142C378.523 93.9655 380.619 95.9306 381.523 96.7994C382.427 97.6681 383.865 99.0126 384.708 99.7987C385.55 100.585 387.029 101.971 387.995 102.901C391.426 106.17 392.145 106.811 392.474 106.956C392.659 107.038 394.015 107.1 395.453 107.1C398.001 107.121 398.761 106.976 399.131 106.418C399.213 106.294 399.295 100.047 399.295 92.5176V78.8449L398.822 78.4105C398.391 77.9969 398.124 77.9555 395.864 77.9555C393.624 77.9555 393.357 77.9969 393.008 78.3899C392.638 78.8036 392.618 79.3621 392.515 88.6289L392.412 98.4335L391.816 97.9163C391.488 97.6268 390.481 96.6753 389.556 95.8065C388.632 94.917 387.091 93.4484 386.125 92.5383C385.16 91.6282 383.598 90.1388 382.632 89.2287C381.667 88.3186 379.509 86.2708 377.825 84.6781C376.14 83.0853 374.106 81.1616 373.305 80.417C370.51 77.7486 371.004 77.9555 367.572 77.9555C364.758 77.9555 364.573 77.9762 364.162 78.4105Z" fill="#3E4FE3"/>
<path d="M364.162 78.4105C363.751 78.8449 363.751 79.0518 363.751 92.3521C363.751 101.888 363.813 106.004 363.977 106.376C364.285 107.038 364.655 107.121 367.305 107.121C369.38 107.121 369.545 107.1 370.017 106.604L370.531 106.108V96.365C370.531 90.656 370.613 86.6431 370.716 86.6845C370.819 86.7052 371.579 87.3878 372.421 88.1738C373.243 88.9598 375.257 90.8628 376.9 92.4142C378.523 93.9655 380.619 95.9306 381.523 96.7994C382.427 97.6681 383.865 99.0126 384.708 99.7987C385.55 100.585 387.029 101.971 387.995 102.901C391.426 106.17 392.145 106.811 392.474 106.956C392.659 107.038 394.015 107.1 395.453 107.1C398.001 107.121 398.761 106.976 399.131 106.418C399.213 106.294 399.295 100.047 399.295 92.5176V78.8449L398.822 78.4105C398.391 77.9969 398.124 77.9555 395.864 77.9555C393.624 77.9555 393.357 77.9969 393.008 78.3899C392.638 78.8036 392.618 79.3621 392.515 88.6289L392.412 98.4335L391.816 97.9163C391.488 97.6268 390.481 96.6753 389.556 95.8065C388.632 94.917 387.091 93.4484 386.125 92.5383C385.16 91.6282 383.598 90.1388 382.632 89.2287C381.667 88.3186 379.509 86.2708 377.825 84.6781C376.14 83.0853 374.106 81.1616 373.305 80.417C370.51 77.7486 371.004 77.9555 367.572 77.9555C364.758 77.9555 364.573 77.9762 364.162 78.4105Z" fill="white" fill-opacity="0.4"/>
<path d="M230.924 89.8494C230.431 90.3251 230.41 90.4906 230.41 92.6004C230.41 94.6276 230.451 94.8965 230.842 95.2481C231.253 95.6204 231.828 95.6411 246.764 95.6411H262.235L262.708 95.186C263.55 94.338 263.489 90.5526 262.605 89.7459C262.194 89.3322 261.845 89.3322 246.806 89.3322H231.417L230.924 89.8494Z" fill="#3E4FE3"/>
<path d="M230.924 89.8494C230.431 90.3251 230.41 90.4906 230.41 92.6004C230.41 94.6276 230.451 94.8965 230.842 95.2481C231.253 95.6204 231.828 95.6411 246.764 95.6411H262.235L262.708 95.186C263.55 94.338 263.489 90.5526 262.605 89.7459C262.194 89.3322 261.845 89.3322 246.806 89.3322H231.417L230.924 89.8494Z" fill="white" fill-opacity="0.4"/>
<path d="M230.739 101.371C230.492 101.722 230.41 102.384 230.41 104.018C230.41 105.652 230.492 106.314 230.739 106.666L231.047 107.121H246.867C256.791 107.121 262.831 107.038 263.078 106.914C263.632 106.625 263.9 105.59 263.9 103.832C263.9 102.632 263.797 102.095 263.489 101.578L263.078 100.916H247.073H231.047L230.739 101.371Z" fill="#3E4FE3"/>
<path d="M230.739 101.371C230.492 101.722 230.41 102.384 230.41 104.018C230.41 105.652 230.492 106.314 230.739 106.666L231.047 107.121H246.867C256.791 107.121 262.831 107.038 263.078 106.914C263.632 106.625 263.9 105.59 263.9 103.832C263.9 102.632 263.797 102.095 263.489 101.578L263.078 100.916H247.073H231.047L230.739 101.371Z" fill="white" fill-opacity="0.4"/>
<defs>
<linearGradient id="paint0_linear_141_1302" x1="57" y1="114" x2="57.0155" y2="20.2274" gradientUnits="userSpaceOnUse">
<stop stop-color="#5161E6"/>
<stop offset="1" stop-color="#8B95EE"/>
</linearGradient>
</defs>
</svg>
