<svg width="32" height="32" viewBox="0 0 32 32" fill="none" xmlns="http://www.w3.org/2000/svg">
<g clip-path="url(#clip0_17_881)">
<mask id="mask0_17_881" style="mask-type:luminance" maskUnits="userSpaceOnUse" x="0" y="0" width="32" height="32">
<path d="M32 0H0V32H32V0Z" fill="white"/>
</mask>
<g mask="url(#mask0_17_881)">
<path d="M16 32C24.8366 32 32 24.8366 32 16C32 7.16344 24.8366 0 16 0C7.16344 0 0 7.16344 0 16C0 24.8366 7.16344 32 16 32Z" fill="#F0F0F0"/>
<path d="M3.30759 6.25879C2.05077 7.89397 1.10308 9.7787 0.55127 11.8261H8.8749L3.30759 6.25879Z" fill="#0052B4"/>
<path d="M31.4488 11.8261C30.8969 9.7787 29.9492 7.89397 28.6924 6.25879L23.1252 11.8261H31.4488Z" fill="#0052B4"/>
<path d="M0.55127 20.1738C1.10315 22.2212 2.05083 24.1059 3.30759 25.741L8.87474 20.1738H0.55127Z" fill="#0052B4"/>
<path d="M25.741 3.30764C24.1059 2.05083 22.2213 1.10315 20.1738 0.55127V8.87482L25.741 3.30764Z" fill="#0052B4"/>
<path d="M6.25879 28.6926C7.89397 29.9494 9.77864 30.8971 11.826 31.449V23.1255L6.25879 28.6926Z" fill="#0052B4"/>
<path d="M11.826 0.55127C9.77864 1.10315 7.89391 2.05083 6.25879 3.30759L11.826 8.87474V0.55127Z" fill="#0052B4"/>
<path d="M20.1738 31.449C22.2212 30.8971 24.1059 29.9494 25.741 28.6927L20.1738 23.1255V31.449Z" fill="#0052B4"/>
<path d="M23.1252 20.1738L28.6924 25.7411C29.9492 24.106 30.8969 22.2212 31.4488 20.1738H23.1252Z" fill="#0052B4"/>
<path d="M31.8646 13.913H18.087L18.087 0.135438C17.4038 0.0465 16.7073 0 16 0C15.2926 0 14.5962 0.0465 13.913 0.135438V13.913L0.135438 13.913C0.0465 14.5962 0 15.2927 0 16C0 16.7074 0.0465 17.4038 0.135438 18.087H13.913L13.913 31.8646C14.5962 31.9535 15.2926 32 16 32C16.7073 32 17.4038 31.9536 18.087 31.8646V18.087L31.8646 18.087C31.9535 17.4038 32 16.7074 32 16C32 15.2927 31.9535 14.5962 31.8646 13.913Z" fill="#D80027"/>
<path d="M20.1741 20.1739L27.3138 27.3137C27.6422 26.9854 27.9554 26.6422 28.2543 26.2865L22.1418 20.1738L20.1741 20.1739Z" fill="#D80027"/>
<path d="M11.8261 20.1738L4.68628 27.3135C5.01453 27.6419 5.35772 27.9552 5.71346 28.2541L11.8261 22.1413V20.1738Z" fill="#D80027"/>
<path d="M11.8261 11.826L4.68635 4.68604C4.35798 5.01428 4.04473 5.35747 3.74585 5.71322L9.85851 11.8259L11.8261 11.826Z" fill="#D80027"/>
<path d="M20.1741 11.8264L27.3139 4.68653C26.9857 4.35816 26.6425 4.04491 26.2867 3.74609L20.1741 9.85876V11.8264Z" fill="#D80027"/>
</g>
</g>
<defs>
<clipPath id="clip0_17_881">
<rect width="32" height="32" fill="white"/>
</clipPath>
</defs>
</svg>
