<svg width="40" height="40" viewBox="0 0 40 40" fill="none" xmlns="http://www.w3.org/2000/svg">
<path d="M23.0859 20.4657C23.0743 21.0729 22.8827 21.6629 22.5354 22.1611C22.1881 22.6593 21.7007 23.0431 21.135 23.2639C20.5693 23.4848 19.9508 23.5327 19.3578 23.4016C18.7649 23.2705 18.2242 22.9663 17.8043 22.5276C17.3844 22.0889 17.1042 21.5354 16.9993 20.9372C16.8943 20.3391 16.9693 19.7232 17.2148 19.1678C17.4602 18.6123 17.8651 18.1422 18.378 17.8171C18.8909 17.492 19.4888 17.3264 20.0959 17.3415C20.9026 17.3714 21.666 17.7143 22.2242 18.2975C22.7824 18.8807 23.0914 19.6584 23.0859 20.4657Z" fill="#424448"/>
<path d="M25.2958 10.8633H14.8979C13.869 10.8633 12.8823 11.272 12.1548 11.9995C11.4273 12.727 11.0186 13.7138 11.0186 14.7426V25.3744C11.0186 25.8838 11.1189 26.3883 11.3139 26.8589C11.5088 27.3296 11.7946 27.7572 12.1548 28.1175C12.515 28.4777 12.9427 28.7634 13.4133 28.9584C13.884 29.1534 14.3884 29.2537 14.8979 29.2537H25.2958C25.8052 29.2537 26.3097 29.1534 26.7804 28.9584C27.251 28.7634 27.6787 28.4777 28.0389 28.1175C28.3991 27.7572 28.6849 27.3296 28.8798 26.8589C29.0748 26.3883 29.1751 25.8838 29.1751 25.3744V14.7618C29.1772 14.2509 29.0783 13.7446 28.8843 13.2719C28.6903 12.7993 28.405 12.3696 28.0446 12.0074C27.6842 11.6452 27.2559 11.3578 26.7842 11.1614C26.3125 10.9651 25.8067 10.8638 25.2958 10.8633ZM20.0959 25.6657C19.0666 25.6889 18.0537 25.4049 17.1865 24.85C16.3193 24.295 15.6371 23.4943 15.227 22.5499C14.8169 21.6055 14.6974 20.5604 14.8839 19.5478C15.0704 18.5353 15.5544 17.6013 16.2741 16.865C16.9937 16.1287 17.9165 15.6235 18.9245 15.414C19.9325 15.2044 20.9801 15.2999 21.9336 15.6884C22.8871 16.0768 23.7032 16.7406 24.2778 17.5949C24.8524 18.4492 25.1595 19.4554 25.1597 20.4849C25.1676 21.1577 25.0428 21.8253 24.7925 22.4498C24.5423 23.0743 24.1714 23.6433 23.7012 24.1245C23.2309 24.6056 22.6705 24.9893 22.0519 25.2538C21.4333 25.5182 20.7686 25.6582 20.0959 25.6657ZM25.7232 15.3061C25.5967 15.3061 25.4715 15.2809 25.3549 15.232C25.2383 15.183 25.1327 15.1112 25.0441 15.0209C24.9556 14.9306 24.886 14.8235 24.8393 14.706C24.7927 14.5884 24.77 14.4627 24.7726 14.3363C24.7726 14.0791 24.8747 13.8324 25.0566 13.6505C25.2385 13.4686 25.4852 13.3664 25.7424 13.3664C25.9996 13.3664 26.2463 13.4686 26.4282 13.6505C26.61 13.8324 26.7122 14.0791 26.7122 14.3363C26.716 14.4732 26.6902 14.6093 26.6365 14.7353C26.5828 14.8614 26.5025 14.9743 26.4012 15.0664C26.2998 15.1585 26.1797 15.2276 26.0491 15.269C25.9185 15.3103 25.7806 15.323 25.6446 15.3061H25.7232Z" fill="#424448"/>
<path d="M20.0957 0.83337C15.0124 0.807953 10.1272 2.80292 6.5148 6.37939C2.90238 9.95587 0.858664 14.8209 0.833248 19.9042C0.807831 24.9875 2.80279 29.8727 6.37927 33.4852C9.95574 37.0976 14.8208 39.1413 19.9041 39.1667C22.4211 39.1793 24.9159 38.696 27.2461 37.7444C29.5764 36.7928 31.6963 35.3916 33.485 33.6207C35.2737 31.8498 36.6961 29.7439 37.6709 27.4233C38.6458 25.1028 39.154 22.6129 39.1666 20.0959C39.1792 17.5789 38.6959 15.084 37.7443 12.7538C36.7927 10.4236 35.3915 8.30361 33.6206 6.51492C31.8497 4.72623 29.7438 3.30386 27.4232 2.32902C25.1026 1.35418 22.6128 0.845955 20.0957 0.83337ZM31.7357 25.1789C31.741 26.0387 31.5756 26.8911 31.2491 27.6866C30.9225 28.4821 30.4413 29.2049 29.8334 29.813C29.2254 30.4211 28.5028 30.9025 27.7074 31.2293C26.9121 31.5561 26.0597 31.7217 25.1998 31.7166H14.9955C14.1358 31.7215 13.2836 31.5557 12.4884 31.229C11.6931 30.9023 10.9706 30.421 10.3625 29.8132C9.7545 29.2054 9.27308 28.4829 8.94612 27.6878C8.61917 26.8926 8.45317 26.0405 8.45775 25.1808V14.9745C8.45241 14.1147 8.6178 13.2623 8.94434 12.4668C9.27088 11.6713 9.75207 10.9485 10.36 10.3404C10.968 9.73229 11.6906 9.25089 12.486 8.92411C13.2814 8.59734 14.1337 8.4317 14.9936 8.43679H25.1998C26.0596 8.4317 26.9117 8.59728 27.707 8.92394C28.5023 9.25059 29.2248 9.73182 29.8327 10.3397C30.4406 10.9477 30.9219 11.6702 31.2485 12.4655C31.5752 13.2607 31.7408 14.1129 31.7357 14.9726V25.1789Z" fill="#424448"/>
</svg>
