<svg width="33" height="33" viewBox="0 0 33 33" fill="none" xmlns="http://www.w3.org/2000/svg">
<g clip-path="url(#clip0_109_1669)">
<path d="M0.0644531 16.5002C0.0644531 23.677 4.66641 29.7582 11.0215 32.0044V0.995972C4.66641 3.24216 0.0644531 9.32331 0.0644531 16.5002Z" fill="#2A5F9E"/>
<path d="M32.9355 16.5002C32.9355 9.32331 28.3884 3.24216 21.9785 0.995972V32.0044C28.3884 29.7582 32.9355 23.677 32.9355 16.5002Z" fill="#C94747"/>
<path d="M11.0215 32.0042C12.7198 32.6068 14.5825 32.9355 16.5 32.9355C18.4175 32.9355 20.2802 32.6068 21.9785 32.0042V0.995801C20.2802 0.393164 18.4175 0.0644531 16.5 0.0644531C14.5825 0.0644531 12.7198 0.393164 11.0215 0.995801V32.0042Z" fill="#FFCE31"/>
</g>
<defs>
<clipPath id="clip0_109_1669">
<rect width="33" height="33" fill="white"/>
</clipPath>
</defs>
</svg>
