<svg width="40" height="40" viewBox="0 0 40 40" fill="none" xmlns="http://www.w3.org/2000/svg">
<path d="M19.9999 0.833374C16.2091 0.833374 12.5034 1.95748 9.3515 4.06354C6.19956 6.1696 3.74292 9.16302 2.29224 12.6653C0.841557 16.1675 0.461993 20.0213 1.20154 23.7393C1.94109 27.4572 3.76654 30.8724 6.44705 33.5529C9.12755 36.2334 12.5427 38.0589 16.2607 38.7984C19.9787 39.538 23.8324 39.1584 27.3347 37.7077C30.8369 36.2571 33.8304 33.8004 35.9364 30.6485C38.0425 27.4965 39.1666 23.7909 39.1666 20C39.1615 14.9183 37.1405 10.0461 33.5472 6.45277C29.9539 2.85942 25.0817 0.838448 19.9999 0.833374ZM31.383 15.6166V16.8548C31.383 16.9496 31.3641 17.0434 31.3273 17.1307C31.2904 17.218 31.2365 17.297 31.1686 17.3631C31.1007 17.4293 31.0202 17.4811 30.932 17.5156C30.8437 17.5501 30.7494 17.5665 30.6547 17.564C28.6311 17.4205 26.6951 16.6816 25.0906 15.4403V24.5023C25.0904 25.5053 24.8902 26.4981 24.5019 27.4229C24.1136 28.3476 23.5448 29.1857 22.8289 29.8881C22.1066 30.6081 21.2483 31.1772 20.3039 31.5622C19.3595 31.9472 18.3479 32.1404 17.3281 32.1306C15.2771 32.127 13.3087 31.3223 11.8426 29.8881C10.9099 28.9478 10.2381 27.7809 9.89333 26.5021C9.54853 25.2234 9.54259 23.8769 9.87609 22.5952C10.1808 21.3647 10.7961 20.2339 11.6643 19.312C12.3118 18.5205 13.128 17.8838 14.0533 17.4484C14.9785 17.013 15.9893 16.7899 17.0118 16.7954H18.5835V20.0595C18.5842 20.1543 18.5647 20.2481 18.5262 20.3348C18.4878 20.4214 18.4313 20.4989 18.3606 20.562C18.2899 20.6251 18.2065 20.6724 18.116 20.7008C18.0256 20.7292 17.9301 20.7379 17.836 20.7265C16.9235 20.4524 15.9401 20.5433 15.0933 20.98C14.2465 21.4168 13.6024 22.1653 13.2967 23.0678C12.991 23.9702 13.0476 24.9561 13.4546 25.8176C13.8616 26.6791 14.5873 27.3489 15.4785 27.6859C15.996 27.983 16.5748 28.1574 17.169 28.1976C17.629 28.2168 18.089 28.1593 18.526 28.0213C19.2559 27.7757 19.8907 27.3082 20.3419 26.6841C20.7931 26.0601 21.0381 25.3107 21.0426 24.5406V8.02854C21.0423 7.93802 21.06 7.84834 21.0944 7.76463C21.1289 7.68093 21.1795 7.60485 21.2434 7.54075C21.3074 7.47666 21.3833 7.4258 21.4669 7.3911C21.5505 7.3564 21.6402 7.33854 21.7307 7.33854H24.4428C24.6191 7.33829 24.7888 7.40577 24.9169 7.52703C25.0449 7.6483 25.1215 7.8141 25.1308 7.99021C25.23 8.83581 25.4988 9.65271 25.921 10.3921C26.3432 11.1314 26.9101 11.778 27.588 12.2931C28.5044 12.981 29.5927 13.4028 30.7333 13.5121C30.9041 13.5267 31.0638 13.6027 31.183 13.7261C31.3021 13.8494 31.3724 14.0117 31.3811 14.183L31.383 15.6166Z" fill="#424448"/>
</svg>
